<svg width="278" height="51" viewBox="0 0 278 51" fill="none" xmlns="http://www.w3.org/2000/svg">
<path d="M277.406 29.3196H0V50.32H277.406V29.3196Z" fill="#6CB723"/>
<path d="M0.888428 0.524994H4.96733L8.68277 7.71356L12.3982 0.524994H16.4367L10.5809 11.8732V20.556H6.74428V11.8732L0.888428 0.524994Z" fill="#6CB723"/>
<path d="M28.5523 0.0403748C31.3793 0.0403748 33.8024 1.05002 35.862 3.10967C37.8813 5.16931 38.9313 7.67318 38.9313 10.6213C38.9313 13.529 37.9217 16.0329 35.9024 18.0522C33.8832 20.0715 31.4601 21.0811 28.5927 21.0811C25.6042 21.0811 23.1003 20.0311 21.1214 17.9714C19.1426 15.9118 18.1329 13.4079 18.1329 10.5809C18.1329 8.68283 18.5772 6.90586 19.506 5.29045C20.4349 3.67504 21.6868 2.4231 23.3426 1.45386C24.958 0.484612 26.6946 0.0403748 28.5523 0.0403748ZM28.5119 3.75582C26.6542 3.75582 25.1196 4.40198 23.8272 5.6943C22.5753 6.98663 21.9291 8.60204 21.9291 10.6213C21.9291 12.8425 22.7368 14.5791 24.3119 15.8714C25.5638 16.881 26.9773 17.3656 28.5523 17.3656C30.3697 17.3656 31.9043 16.7195 33.1562 15.3868C34.4082 14.0944 35.0543 12.479 35.0543 10.5405C35.0543 8.64243 34.4082 7.02702 33.1158 5.6943C31.9043 4.40198 30.3697 3.75582 28.5119 3.75582Z" fill="#6CB723"/>
<path d="M41.9198 0.524994H45.7564V13.4886C45.7564 14.6194 45.8372 15.3868 46.0391 15.8714C46.241 16.3156 46.5641 16.7195 47.0083 16.9618C47.4526 17.2445 48.018 17.3656 48.6237 17.3656C49.3103 17.3656 49.8757 17.2041 50.3603 16.9214C50.8449 16.6387 51.168 16.2348 51.3699 15.7502C51.5719 15.2656 51.6526 14.3771 51.6526 13.004V0.524994H55.4892V12.479C55.4892 14.4983 55.3681 15.8714 55.1661 16.6791C54.9642 17.4868 54.52 18.2137 53.8738 18.9406C53.2276 19.6676 52.5007 20.1926 51.6526 20.556C50.8045 20.9195 49.8353 21.0811 48.7449 21.0811C47.291 21.0811 46.0391 20.758 44.9487 20.0714C43.8583 19.3849 43.091 18.5772 42.6467 17.5676C42.2025 16.5579 41.9602 14.8617 41.9602 12.479V0.524994H41.9198Z" fill="#6CB723"/>
<path d="M59.6893 0.524994H63.7279C65.949 0.524994 67.5241 0.72692 68.4529 1.13077C69.3818 1.53462 70.1491 2.1808 70.7145 3.10966C71.2799 4.03852 71.5626 5.12891 71.5626 6.38085C71.5626 7.71356 71.2395 8.80397 70.6337 9.69244C69.9876 10.5809 69.0587 11.2271 67.7664 11.7117L72.4914 20.5965H68.3318L63.849 12.1156H63.4855V20.5965H59.6893V0.524994ZM63.4855 8.35974H64.6971C65.9087 8.35974 66.7567 8.19819 67.201 7.87511C67.6452 7.55203 67.8875 7.02701 67.8875 6.30007C67.8875 5.85584 67.7664 5.49238 67.5644 5.16929C67.3221 4.84621 67.0394 4.6039 66.6356 4.48274C66.2721 4.3212 65.5452 4.28081 64.5356 4.28081H63.4855V8.35974Z" fill="#6CB723"/>
<path d="M100.923 3.7962L98.2572 6.46163C96.561 4.68468 94.5821 3.75582 92.3205 3.75582C90.3417 3.75582 88.6859 4.40199 87.3532 5.73471C86.0205 7.06742 85.3743 8.64244 85.3743 10.5002C85.3743 12.4386 86.0608 14.0541 87.4339 15.4272C88.807 16.7599 90.5032 17.4464 92.5629 17.4464C93.8956 17.4464 94.986 17.1637 95.8744 16.5983C96.7629 16.0329 97.4899 15.1848 98.0553 14.0137H92.2398V10.4194H102.296L102.336 11.2675C102.336 13.004 101.892 14.6598 100.963 16.2349C100.075 17.8099 98.863 19.0214 97.4495 19.8291C95.9956 20.6368 94.2994 21.0811 92.3609 21.0811C90.3013 21.0811 88.4436 20.6368 86.7878 19.708C85.132 18.7791 83.88 17.5272 82.9108 15.831C81.9819 14.1752 81.4973 12.3579 81.4973 10.4194C81.4973 7.75396 82.3858 5.45201 84.1224 3.51352C86.182 1.17118 88.8878 0 92.2398 0C93.9763 0 95.5917 0.323067 97.1264 0.96923C98.4591 1.53462 99.711 2.46348 100.923 3.7962Z" fill="#6CB723"/>
<path d="M105.648 0.524994H109.686C111.907 0.524994 113.482 0.72692 114.411 1.13077C115.34 1.53462 116.107 2.1808 116.673 3.10966C117.238 4.03852 117.521 5.12891 117.521 6.38085C117.521 7.71356 117.198 8.80397 116.592 9.69244C115.946 10.5809 115.017 11.2271 113.725 11.7117L118.45 20.5965H114.29L109.807 12.1156H109.444V20.5965H105.648V0.524994ZM109.444 8.35974H110.655C111.867 8.35974 112.715 8.19819 113.159 7.87511C113.604 7.55203 113.846 7.02701 113.846 6.30007C113.846 5.85584 113.725 5.49238 113.523 5.16929C113.281 4.84621 112.998 4.6039 112.594 4.48274C112.23 4.3212 111.504 4.28081 110.494 4.28081H109.444V8.35974Z" fill="#6CB723"/>
<path d="M127.173 0.524994H131.05L138.764 20.556H134.806L133.231 16.4368H125.073L123.458 20.556H119.5L127.173 0.524994ZM129.152 5.85585L126.446 12.7213H131.817L129.152 5.85585Z" fill="#6CB723"/>
<path d="M151.727 3.27119L148.9 5.77508C147.891 4.40198 146.881 3.71544 145.871 3.71544C145.387 3.71544 144.942 3.8366 144.66 4.1193C144.337 4.40199 144.175 4.68467 144.175 5.00775C144.175 5.33083 144.296 5.65392 144.498 5.97701C144.821 6.38086 145.75 7.22896 147.285 8.56167C148.739 9.77323 149.627 10.5405 149.95 10.8636C150.718 11.6309 151.283 12.3982 151.606 13.0848C151.929 13.7713 152.091 14.5791 152.091 15.4272C152.091 17.0829 151.525 18.4157 150.394 19.5061C149.264 20.5965 147.769 21.1215 145.952 21.1215C144.539 21.1215 143.287 20.758 142.237 20.0715C141.187 19.3849 140.258 18.2945 139.531 16.7599L142.721 14.8214C143.691 16.5983 144.781 17.4868 146.033 17.4868C146.679 17.4868 147.244 17.2849 147.689 16.9214C148.133 16.5579 148.375 16.1137 148.375 15.5887C148.375 15.1444 148.214 14.7002 147.891 14.2156C147.568 13.7714 146.8 13.0848 145.669 12.1156C143.489 10.3386 142.075 8.96551 141.429 7.99627C140.783 7.02702 140.46 6.05777 140.46 5.08853C140.46 3.71543 140.985 2.50388 142.035 1.53463C143.085 0.525002 144.417 0.0403748 145.952 0.0403748C146.962 0.0403748 147.891 0.282691 148.819 0.726928C149.708 1.17117 150.677 2.01925 151.727 3.27119Z" fill="#6CB723"/>
<path d="M165.741 3.27119L162.914 5.77508C161.904 4.40198 160.895 3.71544 159.885 3.71544C159.4 3.71544 158.956 3.8366 158.673 4.1193C158.35 4.40199 158.189 4.68467 158.189 5.00775C158.189 5.33083 158.31 5.65392 158.512 5.97701C158.835 6.38086 159.764 7.22896 161.299 8.56167C162.752 9.77323 163.641 10.5405 163.964 10.8636C164.731 11.6309 165.297 12.3982 165.62 13.0848C165.943 13.7713 166.104 14.5791 166.104 15.4272C166.104 17.0829 165.539 18.4157 164.408 19.5061C163.277 20.5965 161.783 21.1215 159.966 21.1215C158.552 21.1215 157.3 20.758 156.25 20.0715C155.2 19.3849 154.271 18.2945 153.545 16.7599L156.735 14.8214C157.704 16.5983 158.795 17.4868 160.047 17.4868C160.693 17.4868 161.258 17.2849 161.702 16.9214C162.147 16.5579 162.389 16.1137 162.389 15.5887C162.389 15.1444 162.227 14.7002 161.904 14.2156C161.581 13.7714 160.814 13.0848 159.683 12.1156C157.502 10.3386 156.089 8.96551 155.443 7.99627C154.797 7.02702 154.473 6.05777 154.473 5.08853C154.473 3.71543 154.998 2.50388 156.048 1.53463C157.098 0.525002 158.431 0.0403748 159.966 0.0403748C160.975 0.0403748 161.904 0.282691 162.833 0.726928C163.722 1.17117 164.691 2.01925 165.741 3.27119Z" fill="#6CB723"/>
<path d="M178.543 0.524994H182.258L186.903 14.4983L191.587 0.524994H195.303L198.655 20.556H194.98L192.839 7.91548L188.599 20.556H185.207L181.006 7.91548L178.826 20.556H175.11L178.543 0.524994Z" fill="#6CB723"/>
<path d="M210.649 0.0403748C213.476 0.0403748 215.899 1.05002 217.959 3.10967C219.978 5.16931 221.028 7.67318 221.028 10.6213C221.028 13.529 220.019 16.0329 217.999 18.0522C215.98 20.0715 213.557 21.0811 210.69 21.0811C207.701 21.0811 205.197 20.0311 203.218 17.9714C201.239 15.9118 200.23 13.4079 200.23 10.5809C200.23 8.68283 200.674 6.90586 201.603 5.29045C202.532 3.67504 203.784 2.4231 205.44 1.45386C207.055 0.484612 208.792 0.0403748 210.649 0.0403748ZM210.609 3.75582C208.751 3.75582 207.216 4.40198 205.924 5.6943C204.632 6.98663 204.026 8.60204 204.026 10.6213C204.026 12.8425 204.834 14.5791 206.409 15.8714C207.661 16.881 209.074 17.3656 210.649 17.3656C212.467 17.3656 214.001 16.7195 215.253 15.3868C216.505 14.0944 217.151 12.479 217.151 10.5405C217.151 8.64243 216.505 7.02702 215.213 5.6943C214.001 4.40198 212.467 3.75582 210.609 3.75582Z" fill="#6CB723"/>
<path d="M222.644 0.524994H226.399L229.307 13.2867L232.901 0.524994H236.051L239.686 13.2867L242.553 0.524994H246.309L241.746 20.556H238.071L234.396 7.59241L230.761 20.556H227.126L222.644 0.524994Z" fill="#6CB723"/>
<path d="M248.773 0.524994H259.717V4.24044H252.569V7.87511H259.717V11.5502H252.569V16.8002H259.717V20.556H248.773V0.524994Z" fill="#6CB723"/>
<path d="M263.029 0.524994H267.067C269.289 0.524994 270.864 0.72692 271.792 1.13077C272.721 1.53462 273.489 2.1808 274.054 3.10966C274.619 4.03852 274.902 5.12891 274.902 6.38085C274.902 7.71356 274.579 8.80397 273.973 9.69244C273.327 10.5809 272.398 11.2271 271.106 11.7117L275.831 20.5965H271.671L267.188 12.1156H266.825V20.5965H263.029V0.524994ZM266.825 8.35974H268.037C269.248 8.35974 270.096 8.19819 270.54 7.87511C270.985 7.55203 271.227 7.02701 271.227 6.30007C271.227 5.85584 271.106 5.49238 270.904 5.16929C270.662 4.84621 270.379 4.6039 269.975 4.48274C269.612 4.3212 268.885 4.28081 267.875 4.28081H266.825V8.35974Z" fill="#6CB723"/>
<path d="M48.745 35.1351H50.7239V43.6968H53.6316V45.5949H48.745V35.1351Z" fill="white"/>
<path d="M63.1625 35.1351H68.8568V37.0736H65.1414V38.9717H68.8568V40.8698H65.1414V43.616H68.8568V45.5545H63.1625V35.1351Z" fill="white"/>
<path d="M81.9012 35.1351H83.9205L87.959 45.5949H85.8994L85.0917 43.4545H80.8108L79.9627 45.5949H77.9031L81.9012 35.1351ZM82.9512 37.9217L81.5377 41.516H84.3243L82.9512 37.9217Z" fill="white"/>
<path d="M97.5303 35.1351H102.74V37.0736H99.5091V38.9717H102.74V40.8698H99.5091V45.5949H97.5303V35.1351Z" fill="white"/>
<path d="M124.427 35.1351H126.406V45.5949H124.427V35.1351Z" fill="white"/>
<path d="M135.654 35.1351H141.429V37.114H139.531V45.5949H137.512V37.114H135.654V35.1351Z" fill="white"/>
<path d="M161.864 35.1351H167.639V37.114H165.741V45.5949H163.722V37.114H161.864V35.1351Z" fill="white"/>
<path d="M181.935 34.8524C183.43 34.8524 184.682 35.3774 185.772 36.4678C186.822 37.5582 187.387 38.8506 187.387 40.3852C187.387 41.9198 186.862 43.2122 185.812 44.2622C184.762 45.3122 183.47 45.8372 181.976 45.8372C180.401 45.8372 179.108 45.3122 178.058 44.2218C177.008 43.1314 176.483 41.839 176.483 40.3448C176.483 39.3352 176.726 38.4063 177.21 37.5986C177.695 36.7909 178.341 36.1044 179.189 35.6197C180.037 35.1351 180.966 34.8524 181.935 34.8524ZM181.935 36.8313C180.966 36.8313 180.158 37.1544 179.512 37.8409C178.866 38.5275 178.543 39.3756 178.543 40.4256C178.543 41.5967 178.947 42.4852 179.795 43.1718C180.441 43.6968 181.168 43.9795 182.016 43.9795C182.945 43.9795 183.753 43.6564 184.439 42.9698C185.085 42.2833 185.449 41.4352 185.449 40.466C185.449 39.4563 185.126 38.6082 184.439 37.9217C183.672 37.1544 182.864 36.8313 181.935 36.8313Z" fill="white"/>
<path d="M209.236 35.1351H211.215V41.8795C211.215 42.4449 211.255 42.8891 211.376 43.1314C211.497 43.3737 211.659 43.5756 211.861 43.6968C212.063 43.818 212.386 43.8987 212.709 43.8987C213.072 43.8987 213.355 43.8179 213.597 43.6564C213.84 43.4949 214.042 43.2929 214.122 43.0506C214.203 42.8083 214.284 42.3237 214.284 41.6371V35.1351H216.263V41.3544C216.263 42.4045 216.222 43.1314 216.101 43.5353C215.98 43.9391 215.738 44.343 215.415 44.7064C215.092 45.0699 214.688 45.3526 214.244 45.5545C213.799 45.7564 213.315 45.8372 212.709 45.8372C211.942 45.8372 211.295 45.6757 210.73 45.3122C210.165 44.9487 209.761 44.5449 209.519 44.0199C209.276 43.4949 209.155 42.6064 209.155 41.3544V35.1351H209.236Z" fill="white"/>
<path d="M232.134 36.5486L230.64 37.8409C230.115 37.114 229.59 36.7505 229.065 36.7505C228.823 36.7505 228.58 36.8313 228.419 36.9525C228.257 37.0736 228.177 37.2352 228.177 37.4371C228.177 37.5986 228.217 37.7601 228.338 37.9217C228.5 38.1236 228.984 38.5679 229.792 39.2544C230.559 39.9006 231.003 40.3044 231.165 40.466C231.569 40.8698 231.852 41.2737 232.013 41.6371C232.175 42.0006 232.255 42.4044 232.255 42.8487C232.255 43.6968 231.973 44.4237 231.367 44.9891C230.761 45.5545 229.994 45.8372 229.065 45.8372C228.338 45.8372 227.652 45.6353 227.126 45.2718C226.561 44.9083 226.117 44.3429 225.713 43.5352L227.369 42.5256C227.853 43.4545 228.459 43.8987 229.105 43.8987C229.428 43.8987 229.752 43.8179 229.953 43.616C230.155 43.4141 230.317 43.1718 230.317 42.9295C230.317 42.6871 230.236 42.4448 230.034 42.2025C229.873 41.9602 229.469 41.5967 228.863 41.1121C227.732 40.1833 227.005 39.4563 226.642 38.9717C226.278 38.4871 226.157 37.9621 226.157 37.4775C226.157 36.7505 226.44 36.1448 227.005 35.6197C227.571 35.0947 228.257 34.8524 229.065 34.8524C229.59 34.8524 230.075 34.9736 230.559 35.2159C231.044 35.4582 231.609 35.9024 232.134 36.5486Z" fill="white"/>
</svg>
