<svg width="120" height="120" viewBox="0 0 120 120" fill="none" xmlns="http://www.w3.org/2000/svg">
<mask id="mask0_1847_73087" style="mask-type:luminance" maskUnits="userSpaceOnUse" x="0" y="0" width="121" height="120">
<path d="M120 111.16C120 116.042 116.042 120 111.16 120H8.84017C3.95797 120 0 116.042 0 111.16V8.84017C0 3.95797 3.95797 0 8.84017 0H111.16C116.042 0 120 3.95797 120 8.84017V111.16H120Z" fill="white"/>
</mask>
<g mask="url(#mask0_1847_73087)">
<path d="M179.441 108.507C179.441 114.855 174.294 120 167.948 120H-4.56566C-10.9122 120 -16.0581 114.855 -16.0581 108.507V11.1967C-16.0581 4.85011 -10.9122 -0.295776 -4.56566 -0.295776H167.948C174.294 -0.295776 179.44 4.85011 179.44 11.1967V108.507H179.441Z" fill="#8CC917"/>
</g>
<mask id="mask1_1847_73087" style="mask-type:luminance" maskUnits="userSpaceOnUse" x="0" y="0" width="121" height="120">
<path d="M120 111.16C120 116.042 116.042 120 111.16 120H8.84017C3.95797 120 0 116.042 0 111.16V8.84017C0 3.95797 3.95797 0 8.84017 0H111.16C116.042 0 120 3.95797 120 8.84017V111.16H120Z" fill="white"/>
</mask>
<g mask="url(#mask1_1847_73087)">
<path d="M179.441 20.4833L41.6247 41.0146C41.6006 40.714 41.5474 40.4221 41.4687 40.1409L175.929 2.93085C173.861 0.934723 171.049 -0.296265 167.948 -0.296265H149.659L41.4608 40.1097C41.3769 39.8209 41.2661 39.5441 41.1312 39.2812L117.245 -0.295825H103.232L41.1158 39.2496C40.976 38.9828 40.8112 38.7319 40.6231 38.4994L87.7228 -0.295825H80.0635L40.5999 38.4678C40.4082 38.2344 40.1947 38.0199 39.9622 37.8283L70.3071 -0.295825H65.1524L39.927 37.8024C39.6919 37.6117 39.437 37.4451 39.1658 37.3036L57.9238 -0.296265H53.9289L39.1228 37.2829C38.8525 37.1449 38.5664 37.0342 38.2688 36.9511L47.9076 -0.296265H44.4484L38.217 36.9379C37.9234 36.8606 37.6197 36.8118 37.3064 36.7933L38.9285 -0.296265H35.6271L37.2492 36.7903C37.1781 36.7868 37.1077 36.7797 37.0357 36.7797C36.7944 36.7797 36.5584 36.8043 36.3277 36.8399L30.1578 -0.295825H26.7004L36.2661 36.8492C35.9545 36.9019 35.653 36.985 35.3665 37.097L20.6839 -0.295825H16.6934L35.3045 37.1194C35.0118 37.2385 34.7328 37.3849 34.4744 37.558L9.47489 -0.295825H4.329L34.4181 37.5985C34.1588 37.7778 33.9202 37.9839 33.7031 38.212L-5.37651 -0.264182C-7.37131 -0.124867 -9.22461 0.522929 -10.8103 1.55132L33.6556 38.2639C33.442 38.495 33.2522 38.7477 33.0891 39.0189L-15.5896 7.94841C-15.8924 8.97899 -16.0581 10.068 -16.0581 11.1966V13.4723L33.0513 39.0808C32.8944 39.352 32.763 39.6394 32.6624 39.9427L-16.0581 21.6831V26.473L32.6378 40.0108C32.545 40.3079 32.4822 40.6182 32.4514 40.9372L-16.0581 33.6528V38.016L32.447 41.0089C32.4369 41.1337 32.4281 41.2594 32.4281 41.3872C32.4281 41.5789 32.4435 41.7661 32.4659 41.9515L-16.0581 44.889V49.2513L32.4769 42.0205C32.52 42.337 32.5956 42.642 32.7002 42.9338L-16.0581 56.4267V61.2136L32.7226 42.9962C32.8333 43.2915 32.9713 43.5723 33.137 43.8347L-16.0581 69.4152V75.2291L33.1709 43.8897C33.3401 44.1511 33.5339 44.3951 33.7519 44.6166L-16.0581 85.6439V93.6245L33.7932 44.6592C34.012 44.8763 34.2542 45.0705 34.5135 45.2402L-16.0511 108.768C-15.9825 111.838 -14.7137 114.612 -12.6912 116.634L34.5605 45.2687C34.8172 45.4331 35.091 45.5715 35.3793 45.6827L-1.69497 120H6.15285L35.4263 45.6999C35.7089 45.8054 36.0033 45.8831 36.3088 45.9315L17.1408 120H23.9598L36.3536 45.9385C36.5768 45.9719 36.8032 45.9948 37.0361 45.9948C37.1108 45.9948 37.1838 45.9869 37.2576 45.9838L34.0204 120H40.5353L37.2985 45.9816C37.6013 45.9644 37.8966 45.9183 38.1818 45.8449L50.5018 120H57.3173L38.217 45.8366C38.5088 45.7592 38.7887 45.6546 39.0538 45.5245L68.2964 120H76.1368L39.0841 45.5105C39.3508 45.3773 39.6035 45.2195 39.8378 45.0393L89.3436 120H99.3976L39.8615 45.0213C40.0958 44.8394 40.3102 44.6359 40.5054 44.4131L117.278 120H132.099L40.5243 44.392C40.7168 44.1696 40.8864 43.9283 41.0341 43.6717L160.619 120H167.948C171.96 120 175.491 117.942 177.547 114.826L41.0477 43.6488C41.1918 43.3939 41.3114 43.1245 41.4054 42.8419L179.44 94.5746V81.1871L41.4151 42.8164C41.5052 42.5396 41.5689 42.2517 41.6049 41.9551L179.441 62.6538V50.4331L41.6093 41.9278C41.63 41.7503 41.6436 41.5705 41.6436 41.3877C41.6436 41.2712 41.6348 41.1583 41.6265 41.044L179.441 32.7018V20.4833Z" fill="#80BC0D"/>
</g>
<mask id="mask2_1847_73087" style="mask-type:luminance" maskUnits="userSpaceOnUse" x="0" y="0" width="121" height="120">
<path d="M120 111.16C120 116.042 116.042 120 111.16 120H8.84017C3.95797 120 0 116.042 0 111.16V8.84017C0 3.95797 3.95797 0 8.84017 0H111.16C116.042 0 120 3.95797 120 8.84017V111.16H120Z" fill="white"/>
</mask>
<g mask="url(#mask2_1847_73087)">
<g opacity="0.8">
<mask id="mask3_1847_73087" style="mask-type:luminance" maskUnits="userSpaceOnUse" x="0" y="-1" width="121" height="122">
<path d="M120 -0.295776H0.000488281V120H120V-0.295776Z" fill="white"/>
</mask>
<g mask="url(#mask3_1847_73087)">
<path d="M109.889 72.9328C110.177 72.9328 110.41 72.6996 110.41 72.412C110.41 72.1244 110.177 71.8912 109.889 71.8912C109.602 71.8912 109.369 72.1244 109.369 72.412C109.369 72.6996 109.602 72.9328 109.889 72.9328Z" fill="#5F9600"/>
<path d="M114.133 45.4222C114.421 45.4222 114.654 45.1888 114.654 44.901C114.654 44.6131 114.421 44.3798 114.133 44.3798C113.845 44.3798 113.612 44.6131 113.612 44.901C113.612 45.1888 113.845 45.4222 114.133 45.4222Z" fill="#5F9600"/>
<path d="M107.653 27.2773C107.941 27.2773 108.174 27.044 108.174 26.7561C108.174 26.4682 107.941 26.2349 107.653 26.2349C107.365 26.2349 107.132 26.4682 107.132 26.7561C107.132 27.044 107.365 27.2773 107.653 27.2773Z" fill="#5F9600"/>
<path d="M106.804 28.5711C107.092 28.5711 107.325 28.3378 107.325 28.0499C107.325 27.762 107.092 27.5287 106.804 27.5287C106.516 27.5287 106.283 27.762 106.283 28.0499C106.283 28.3378 106.516 28.5711 106.804 28.5711Z" fill="#5F9600"/>
<path d="M103.552 25.5721C103.84 25.5721 104.073 25.3388 104.073 25.0509C104.073 24.763 103.84 24.5297 103.552 24.5297C103.264 24.5297 103.031 24.763 103.031 25.0509C103.031 25.3388 103.264 25.5721 103.552 25.5721Z" fill="#5F9600"/>
<path d="M88.9739 22.9695C89.2617 22.9695 89.4951 22.7361 89.4951 22.4482C89.4951 22.1604 89.2617 21.927 88.9739 21.927C88.686 21.927 88.4526 22.1604 88.4526 22.4482C88.4526 22.7361 88.686 22.9695 88.9739 22.9695Z" fill="#5F9600"/>
<path d="M7.64427 7.87326C7.93214 7.87326 8.1655 7.6399 8.1655 7.35204C8.1655 7.06417 7.93214 6.83081 7.64427 6.83081C7.35641 6.83081 7.12305 7.06417 7.12305 7.35204C7.12305 7.6399 7.35641 7.87326 7.64427 7.87326Z" fill="#5F9600"/>
<path d="M90.2331 48.9723C90.521 48.9723 90.7544 48.7389 90.7544 48.451C90.7544 48.1632 90.521 47.9298 90.2331 47.9298C89.9453 47.9298 89.7119 48.1632 89.7119 48.451C89.7119 48.7389 89.9453 48.9723 90.2331 48.9723Z" fill="#5F9600"/>
<path d="M77.8215 47.4345C78.1094 47.4345 78.3427 47.2012 78.3427 46.9133C78.3427 46.6255 78.1094 46.3921 77.8215 46.3921C77.5336 46.3921 77.3003 46.6255 77.3003 46.9133C77.3003 47.2012 77.5336 47.4345 77.8215 47.4345Z" fill="#5F9600"/>
<path d="M94.8034 65.8937C95.0915 65.8937 95.3251 65.6601 95.3251 65.372C95.3251 65.0839 95.0915 64.8503 94.8034 64.8503C94.5153 64.8503 94.2817 65.0839 94.2817 65.372C94.2817 65.6601 94.5153 65.8937 94.8034 65.8937Z" fill="#5F9600"/>
<path d="M38.4504 2.13632C38.7383 2.13632 38.9717 1.90296 38.9717 1.6151C38.9717 1.32723 38.7383 1.09387 38.4504 1.09387C38.1626 1.09387 37.9292 1.32723 37.9292 1.6151C37.9292 1.90296 38.1626 2.13632 38.4504 2.13632Z" fill="#5F9600"/>
<path d="M105.915 45.1572C106.203 45.1572 106.436 44.9238 106.436 44.636C106.436 44.3481 106.203 44.1147 105.915 44.1147C105.627 44.1147 105.394 44.3481 105.394 44.636C105.394 44.9238 105.627 45.1572 105.915 45.1572Z" fill="#5F9600"/>
<path d="M61.9294 0.131806C62.2173 0.131806 62.4507 -0.101555 62.4507 -0.389419C62.4507 -0.677284 62.2173 -0.910645 61.9294 -0.910645C61.6416 -0.910645 61.4082 -0.677284 61.4082 -0.389419C61.4082 -0.101555 61.6416 0.131806 61.9294 0.131806Z" fill="#5F9600"/>
<path d="M62.2629 2.31784C62.5508 2.31784 62.7841 2.08448 62.7841 1.79662C62.7841 1.50875 62.5508 1.27539 62.2629 1.27539C61.9751 1.27539 61.7417 1.50875 61.7417 1.79662C61.7417 2.08448 61.9751 2.31784 62.2629 2.31784Z" fill="#5F9600"/>
<path d="M111.842 98.3239C112.13 98.3239 112.363 98.0906 112.363 97.8027C112.363 97.5149 112.13 97.2815 111.842 97.2815C111.554 97.2815 111.321 97.5149 111.321 97.8027C111.321 98.0906 111.554 98.3239 111.842 98.3239Z" fill="#5F9600"/>
<path d="M45.281 3.97824C45.5689 3.97824 45.8022 3.74488 45.8022 3.45702C45.8022 3.16915 45.5689 2.93579 45.281 2.93579C44.9931 2.93579 44.7598 3.16915 44.7598 3.45702C44.7598 3.74488 44.9931 3.97824 45.281 3.97824Z" fill="#5F9600"/>
<path d="M115.859 91.2975C116.146 91.2975 116.38 91.0641 116.38 90.7762C116.38 90.4884 116.146 90.255 115.859 90.255C115.571 90.255 115.337 90.4884 115.337 90.7762C115.337 91.0641 115.571 91.2975 115.859 91.2975Z" fill="#5F9600"/>
<path d="M84.155 42.9769C84.4429 42.9769 84.6762 42.7435 84.6762 42.4557C84.6762 42.1678 84.4429 41.9344 84.155 41.9344C83.8672 41.9344 83.6338 42.1678 83.6338 42.4557C83.6338 42.7435 83.8672 42.9769 84.155 42.9769Z" fill="#5F9600"/>
<path d="M49.7356 55.4045C50.0234 55.4045 50.2568 55.1712 50.2568 54.8833C50.2568 54.5954 50.0234 54.3621 49.7356 54.3621C49.4477 54.3621 49.2144 54.5954 49.2144 54.8833C49.2144 55.1712 49.4477 55.4045 49.7356 55.4045Z" fill="#5F9600"/>
<path d="M62.1257 44.6747C62.4136 44.6747 62.6469 44.4413 62.6469 44.1534C62.6469 43.8656 62.4136 43.6322 62.1257 43.6322C61.8378 43.6322 61.6045 43.8656 61.6045 44.1534C61.6045 44.4413 61.8378 44.6747 62.1257 44.6747Z" fill="#5F9600"/>
<path d="M62.0784 45.4543C62.366 45.4543 62.5992 45.2211 62.5992 44.9335C62.5992 44.6459 62.366 44.4127 62.0784 44.4127C61.7908 44.4127 61.5576 44.6459 61.5576 44.9335C61.5576 45.2211 61.7908 45.4543 62.0784 45.4543Z" fill="#5F9600"/>
<path d="M72.1931 103.962C72.481 103.962 72.7143 103.729 72.7143 103.441C72.7143 103.153 72.481 102.919 72.1931 102.919C71.9052 102.919 71.6719 103.153 71.6719 103.441C71.6719 103.729 71.9052 103.962 72.1931 103.962Z" fill="#5F9600"/>
<path d="M9.83958 16.1206C10.1274 16.1206 10.3608 15.8872 10.3608 15.5994C10.3608 15.3115 10.1274 15.0781 9.83958 15.0781C9.55172 15.0781 9.31836 15.3115 9.31836 15.5994C9.31836 15.8872 9.55172 16.1206 9.83958 16.1206Z" fill="#5F9600"/>
<path d="M101.229 19.5675C101.517 19.5675 101.75 19.3341 101.75 19.0462C101.75 18.7584 101.517 18.525 101.229 18.525C100.941 18.525 100.708 18.7584 100.708 19.0462C100.708 19.3341 100.941 19.5675 101.229 19.5675Z" fill="#5F9600"/>
<path d="M87.6472 73.3218C87.9353 73.3218 88.1688 73.0882 88.1688 72.8001C88.1688 72.512 87.9353 72.2784 87.6472 72.2784C87.359 72.2784 87.1255 72.512 87.1255 72.8001C87.1255 73.0882 87.359 73.3218 87.6472 73.3218Z" fill="#5F9600"/>
<path d="M59.2756 62.1559C59.5635 62.1559 59.7968 61.9225 59.7968 61.6346C59.7968 61.3468 59.5635 61.1134 59.2756 61.1134C58.9878 61.1134 58.7544 61.3468 58.7544 61.6346C58.7544 61.9225 58.9878 62.1559 59.2756 62.1559Z" fill="#5F9600"/>
<path d="M78.0061 23.7478C78.2939 23.7478 78.5273 23.5144 78.5273 23.2265C78.5273 22.9387 78.2939 22.7053 78.0061 22.7053C77.7182 22.7053 77.4849 22.9387 77.4849 23.2265C77.4849 23.5144 77.7182 23.7478 78.0061 23.7478Z" fill="#5F9600"/>
<path d="M77.4851 29.7568C77.773 29.7568 78.0063 29.5234 78.0063 29.2356C78.0063 28.9477 77.773 28.7144 77.4851 28.7144C77.1972 28.7144 76.9639 28.9477 76.9639 29.2356C76.9639 29.5234 77.1972 29.7568 77.4851 29.7568Z" fill="#5F9600"/>
<path d="M85.4978 55.2116C85.7857 55.2116 86.019 54.9783 86.019 54.6904C86.019 54.4025 85.7857 54.1692 85.4978 54.1692C85.2099 54.1692 84.9766 54.4025 84.9766 54.6904C84.9766 54.9783 85.2099 55.2116 85.4978 55.2116Z" fill="#5F9600"/>
<path d="M7.9597 39.603C8.24757 39.603 8.48093 39.3696 8.48093 39.0818C8.48093 38.7939 8.24757 38.5605 7.9597 38.5605C7.67184 38.5605 7.43848 38.7939 7.43848 39.0818C7.43848 39.3696 7.67184 39.603 7.9597 39.603Z" fill="#5F9600"/>
<path d="M74.5613 89.1256C74.8491 89.1256 75.0825 88.8922 75.0825 88.6044C75.0825 88.3165 74.8491 88.0831 74.5613 88.0831C74.2734 88.0831 74.04 88.3165 74.04 88.6044C74.04 88.8922 74.2734 89.1256 74.5613 89.1256Z" fill="#5F9600"/>
<path d="M50.9968 9.96872C51.2847 9.96872 51.518 9.73536 51.518 9.44749C51.518 9.15963 51.2847 8.92627 50.9968 8.92627C50.7089 8.92627 50.4756 9.15963 50.4756 9.44749C50.4756 9.73536 50.7089 9.96872 50.9968 9.96872Z" fill="#5F9600"/>
<path d="M53.7483 4.09775C54.0361 4.09775 54.2695 3.86439 54.2695 3.57652C54.2695 3.28866 54.0361 3.0553 53.7483 3.0553C53.4604 3.0553 53.2271 3.28866 53.2271 3.57652C53.2271 3.86439 53.4604 4.09775 53.7483 4.09775Z" fill="#5F9600"/>
<path d="M87.6614 94.9218C87.9492 94.9218 88.1826 94.6885 88.1826 94.4006C88.1826 94.1128 87.9492 93.8794 87.6614 93.8794C87.3735 93.8794 87.1401 94.1128 87.1401 94.4006C87.1401 94.6885 87.3735 94.9218 87.6614 94.9218Z" fill="#5F9600"/>
<path d="M84.4128 95.1755C84.7007 95.1755 84.9341 94.9421 84.9341 94.6543C84.9341 94.3664 84.7007 94.1331 84.4128 94.1331C84.125 94.1331 83.8916 94.3664 83.8916 94.6543C83.8916 94.9421 84.125 95.1755 84.4128 95.1755Z" fill="#5F9600"/>
<path d="M98.7648 99.3448C99.0529 99.3448 99.2865 99.1113 99.2865 98.8232C99.2865 98.5351 99.0529 98.3015 98.7648 98.3015C98.4767 98.3015 98.2432 98.5351 98.2432 98.8232C98.2432 99.1113 98.4767 99.3448 98.7648 99.3448Z" fill="#5F9600"/>
<path d="M117.44 67.475C117.728 67.475 117.961 67.2414 117.961 66.9533C117.961 66.6652 117.728 66.4316 117.44 66.4316C117.152 66.4316 116.918 66.6652 116.918 66.9533C116.918 67.2414 117.152 67.475 117.44 67.475Z" fill="#5F9600"/>
<path d="M115.762 68.0317C116.05 68.0317 116.283 67.7983 116.283 67.5105C116.283 67.2226 116.05 66.9893 115.762 66.9893C115.474 66.9893 115.241 67.2226 115.241 67.5105C115.241 67.7983 115.474 68.0317 115.762 68.0317Z" fill="#5F9600"/>
<path d="M54.2405 118.801C54.5283 118.801 54.7617 118.568 54.7617 118.28C54.7617 117.992 54.5283 117.759 54.2405 117.759C53.9526 117.759 53.7192 117.992 53.7192 118.28C53.7192 118.568 53.9526 118.801 54.2405 118.801Z" fill="#5F9600"/>
<path d="M85.2664 15.7835C85.554 15.7835 85.7872 15.5504 85.7872 15.2627C85.7872 14.9751 85.554 14.7419 85.2664 14.7419C84.9788 14.7419 84.7456 14.9751 84.7456 15.2627C84.7456 15.5504 84.9788 15.7835 85.2664 15.7835Z" fill="#5F9600"/>
<path d="M3.59349 20.8622C3.88136 20.8622 4.11472 20.6288 4.11472 20.3409C4.11472 20.0531 3.88136 19.8197 3.59349 19.8197C3.30563 19.8197 3.07227 20.0531 3.07227 20.3409C3.07227 20.6288 3.30563 20.8622 3.59349 20.8622Z" fill="#5F9600"/>
<path d="M6.08714 23.4687C6.37501 23.4687 6.60837 23.2354 6.60837 22.9475C6.60837 22.6596 6.37501 22.4263 6.08714 22.4263C5.79928 22.4263 5.56592 22.6596 5.56592 22.9475C5.56592 23.2354 5.79928 23.4687 6.08714 23.4687Z" fill="#5F9600"/>
<path d="M67.3171 115.107C67.605 115.107 67.8383 114.874 67.8383 114.586C67.8383 114.298 67.605 114.065 67.3171 114.065C67.0293 114.065 66.7959 114.298 66.7959 114.586C66.7959 114.874 67.0293 115.107 67.3171 115.107Z" fill="#5F9600"/>
<path d="M63.1447 112.527C63.4328 112.527 63.6664 112.294 63.6664 112.006C63.6664 111.718 63.4328 111.484 63.1447 111.484C62.8566 111.484 62.623 111.718 62.623 112.006C62.623 112.294 62.8566 112.527 63.1447 112.527Z" fill="#5F9600"/>
<path d="M69.426 51.883C69.7139 51.883 69.9472 51.6497 69.9472 51.3618C69.9472 51.0739 69.7139 50.8406 69.426 50.8406C69.1381 50.8406 68.9048 51.0739 68.9048 51.3618C68.9048 51.6497 69.1381 51.883 69.426 51.883Z" fill="#5F9600"/>
<path d="M107.574 120.389C107.862 120.389 108.095 120.156 108.095 119.868C108.095 119.58 107.862 119.347 107.574 119.347C107.286 119.347 107.053 119.58 107.053 119.868C107.053 120.156 107.286 120.389 107.574 120.389Z" fill="#5F9600"/>
<path d="M48.032 38.0556C48.3198 38.0556 48.5532 37.8223 48.5532 37.5344C48.5532 37.2465 48.3198 37.0132 48.032 37.0132C47.7441 37.0132 47.5107 37.2465 47.5107 37.5344C47.5107 37.8223 47.7441 38.0556 48.032 38.0556Z" fill="#5F9600"/>
<path d="M15.8098 15.2614C16.0977 15.2614 16.331 15.0281 16.331 14.7402C16.331 14.4524 16.0977 14.219 15.8098 14.219C15.5219 14.219 15.2886 14.4524 15.2886 14.7402C15.2886 15.0281 15.5219 15.2614 15.8098 15.2614Z" fill="#5F9600"/>
<path d="M62.4021 89.8405C62.69 89.8405 62.9233 89.6072 62.9233 89.3193C62.9233 89.0315 62.69 88.7981 62.4021 88.7981C62.1142 88.7981 61.8809 89.0315 61.8809 89.3193C61.8809 89.6072 62.1142 89.8405 62.4021 89.8405Z" fill="#5F9600"/>
<path d="M119.189 73.3934C119.477 73.3934 119.711 73.1599 119.711 72.8718C119.711 72.5837 119.477 72.3501 119.189 72.3501C118.901 72.3501 118.667 72.5837 118.667 72.8718C118.667 73.1599 118.901 73.3934 119.189 73.3934Z" fill="#5F9600"/>
<path d="M104.061 112.075C104.349 112.075 104.582 111.842 104.582 111.554C104.582 111.266 104.349 111.033 104.061 111.033C103.773 111.033 103.54 111.266 103.54 111.554C103.54 111.842 103.773 112.075 104.061 112.075Z" fill="#5F9600"/>
<path d="M85.2249 9.14741C85.5125 9.14741 85.7457 8.91424 85.7457 8.62662C85.7457 8.339 85.5125 8.10583 85.2249 8.10583C84.9373 8.10583 84.7041 8.339 84.7041 8.62662C84.7041 8.91424 84.9373 9.14741 85.2249 9.14741Z" fill="#5F9600"/>
<path d="M85.7765 31.3627C86.0647 31.3627 86.2982 31.1291 86.2982 30.841C86.2982 30.5529 86.0647 30.3193 85.7765 30.3193C85.4884 30.3193 85.2549 30.5529 85.2549 30.841C85.2549 31.1291 85.4884 31.3627 85.7765 31.3627Z" fill="#5F9600"/>
<path d="M69.0969 70.9367C69.3848 70.9367 69.6181 70.7034 69.6181 70.4155C69.6181 70.1276 69.3848 69.8943 69.0969 69.8943C68.809 69.8943 68.5757 70.1276 68.5757 70.4155C68.5757 70.7034 68.809 70.9367 69.0969 70.9367Z" fill="#5F9600"/>
<path d="M63.6975 74.1981C63.9854 74.1981 64.2187 73.9647 64.2187 73.6769C64.2187 73.389 63.9854 73.1556 63.6975 73.1556C63.4096 73.1556 63.1763 73.389 63.1763 73.6769C63.1763 73.9647 63.4096 74.1981 63.6975 74.1981Z" fill="#5F9600"/>
<path d="M111.268 36.6959C111.556 36.6959 111.79 36.4625 111.79 36.1747C111.79 35.8868 111.556 35.6534 111.268 35.6534C110.98 35.6534 110.747 35.8868 110.747 36.1747C110.747 36.4625 110.98 36.6959 111.268 36.6959Z" fill="#5F9600"/>
<path d="M26.9602 31.2551C27.2481 31.2551 27.4814 31.0217 27.4814 30.7339C27.4814 30.446 27.2481 30.2126 26.9602 30.2126C26.6723 30.2126 26.439 30.446 26.439 30.7339C26.439 31.0217 26.6723 31.2551 26.9602 31.2551Z" fill="#5F9600"/>
<path d="M32.1052 13.0315C32.3931 13.0315 32.6264 12.7981 32.6264 12.5102C32.6264 12.2224 32.3931 11.989 32.1052 11.989C31.8173 11.989 31.584 12.2224 31.584 12.5102C31.584 12.7981 31.8173 13.0315 32.1052 13.0315Z" fill="#5F9600"/>
<path d="M85.7595 118.915C86.0474 118.915 86.2807 118.681 86.2807 118.393C86.2807 118.105 86.0474 117.872 85.7595 117.872C85.4716 117.872 85.2383 118.105 85.2383 118.393C85.2383 118.681 85.4716 118.915 85.7595 118.915Z" fill="#5F9600"/>
<path d="M83.0183 118.599C83.3062 118.599 83.5395 118.366 83.5395 118.078C83.5395 117.79 83.3062 117.557 83.0183 117.557C82.7304 117.557 82.4971 117.79 82.4971 118.078C82.4971 118.366 82.7304 118.599 83.0183 118.599Z" fill="#5F9600"/>
<path d="M61.2532 16.0279C61.541 16.0279 61.7744 15.7946 61.7744 15.5067C61.7744 15.2188 61.541 14.9855 61.2532 14.9855C60.9653 14.9855 60.7319 15.2188 60.7319 15.5067C60.7319 15.7946 60.9653 16.0279 61.2532 16.0279Z" fill="#5F9600"/>
<path d="M97.1784 94.1031C97.4663 94.1031 97.6997 93.8698 97.6997 93.5819C97.6997 93.294 97.4663 93.0607 97.1784 93.0607C96.8906 93.0607 96.6572 93.294 96.6572 93.5819C96.6572 93.8698 96.8906 94.1031 97.1784 94.1031Z" fill="#5F9600"/>
<path d="M71.9055 35.7413C72.1936 35.7413 72.4271 35.5078 72.4271 35.2197C72.4271 34.9316 72.1936 34.698 71.9055 34.698C71.6173 34.698 71.3838 34.9316 71.3838 35.2197C71.3838 35.5078 71.6173 35.7413 71.9055 35.7413Z" fill="#5F9600"/>
<path d="M71.7292 36.7838C72.0171 36.7838 72.2505 36.5504 72.2505 36.2626C72.2505 35.9747 72.0171 35.7413 71.7292 35.7413C71.4414 35.7413 71.208 35.9747 71.208 36.2626C71.208 36.5504 71.4414 36.7838 71.7292 36.7838Z" fill="#5F9600"/>
<path d="M119.854 65.5083C120.142 65.5083 120.375 65.2749 120.375 64.987C120.375 64.6992 120.142 64.4658 119.854 64.4658C119.566 64.4658 119.333 64.6992 119.333 64.987C119.333 65.2749 119.566 65.5083 119.854 65.5083Z" fill="#5F9600"/>
<path d="M108.427 106.009C108.714 106.009 108.948 105.776 108.948 105.488C108.948 105.2 108.714 104.967 108.427 104.967C108.139 104.967 107.905 105.2 107.905 105.488C107.905 105.776 108.139 106.009 108.427 106.009Z" fill="#5F9600"/>
<path d="M44.5237 66.4909C44.8113 66.4909 45.0445 66.2577 45.0445 65.9701C45.0445 65.6825 44.8113 65.4493 44.5237 65.4493C44.2361 65.4493 44.0029 65.6825 44.0029 65.9701C44.0029 66.2577 44.2361 66.4909 44.5237 66.4909Z" fill="#5F9600"/>
<path d="M44.6887 67.046C44.9766 67.046 45.2099 66.8126 45.2099 66.5248C45.2099 66.2369 44.9766 66.0035 44.6887 66.0035C44.4008 66.0035 44.1675 66.2369 44.1675 66.5248C44.1675 66.8126 44.4008 67.046 44.6887 67.046Z" fill="#5F9600"/>
<path d="M70.1755 61.0224C70.4634 61.0224 70.6967 60.7891 70.6967 60.5012C70.6967 60.2133 70.4634 59.98 70.1755 59.98C69.8877 59.98 69.6543 60.2133 69.6543 60.5012C69.6543 60.7891 69.8877 61.0224 70.1755 61.0224Z" fill="#5F9600"/>
<path d="M43.3518 55.477C43.6397 55.477 43.873 55.2437 43.873 54.9558C43.873 54.6679 43.6397 54.4346 43.3518 54.4346C43.0639 54.4346 42.8306 54.6679 42.8306 54.9558C42.8306 55.2437 43.0639 55.477 43.3518 55.477Z" fill="#5F9600"/>
<path d="M67.7429 29.9854C68.0308 29.9854 68.2641 29.7521 68.2641 29.4642C68.2641 29.1764 68.0308 28.943 67.7429 28.943C67.455 28.943 67.2217 29.1764 67.2217 29.4642C67.2217 29.7521 67.455 29.9854 67.7429 29.9854Z" fill="#5F9600"/>
<path d="M66.4783 39.904C66.7661 39.904 66.9995 39.6707 66.9995 39.3828C66.9995 39.0949 66.7661 38.8616 66.4783 38.8616C66.1904 38.8616 65.957 39.0949 65.957 39.3828C65.957 39.6707 66.1904 39.904 66.4783 39.904Z" fill="#5F9600"/>
<path d="M43.5012 40.9514C43.7891 40.9514 44.0224 40.718 44.0224 40.4302C44.0224 40.1423 43.7891 39.9089 43.5012 39.9089C43.2133 39.9089 42.98 40.1423 42.98 40.4302C42.98 40.718 43.2133 40.9514 43.5012 40.9514Z" fill="#5F9600"/>
<path d="M101.289 83.4233C101.577 83.4233 101.811 83.19 101.811 82.9021C101.811 82.6142 101.577 82.3809 101.289 82.3809C101.001 82.3809 100.768 82.6142 100.768 82.9021C100.768 83.19 101.001 83.4233 101.289 83.4233Z" fill="#5F9600"/>
<path d="M58.0193 51.8619C58.3071 51.8619 58.5405 51.6285 58.5405 51.3407C58.5405 51.0528 58.3071 50.8195 58.0193 50.8195C57.7314 50.8195 57.498 51.0528 57.498 51.3407C57.498 51.6285 57.7314 51.8619 58.0193 51.8619Z" fill="#5F9600"/>
<path d="M30.7038 52.1102C30.9917 52.1102 31.2251 51.8768 31.2251 51.589C31.2251 51.3011 30.9917 51.0677 30.7038 51.0677C30.416 51.0677 30.1826 51.3011 30.1826 51.589C30.1826 51.8768 30.416 52.1102 30.7038 52.1102Z" fill="#5F9600"/>
<path d="M36.6966 52.1494C36.9842 52.1494 37.2174 51.9162 37.2174 51.6286C37.2174 51.341 36.9842 51.1078 36.6966 51.1078C36.4089 51.1078 36.1758 51.341 36.1758 51.6286C36.1758 51.9162 36.4089 52.1494 36.6966 52.1494Z" fill="#5F9600"/>
<path d="M20.7864 26.735C21.0742 26.735 21.3076 26.5016 21.3076 26.2137C21.3076 25.9259 21.0742 25.6925 20.7864 25.6925C20.4985 25.6925 20.2651 25.9259 20.2651 26.2137C20.2651 26.5016 20.4985 26.735 20.7864 26.735Z" fill="#5F9600"/>
<path d="M21.3967 27.6513C21.6846 27.6513 21.9179 27.418 21.9179 27.1301C21.9179 26.8422 21.6846 26.6089 21.3967 26.6089C21.1088 26.6089 20.8755 26.8422 20.8755 27.1301C20.8755 27.418 21.1088 27.6513 21.3967 27.6513Z" fill="#5F9600"/>
<path d="M20.8879 46.0643C21.1758 46.0643 21.4092 45.8309 21.4092 45.5431C21.4092 45.2552 21.1758 45.0219 20.8879 45.0219C20.6001 45.0219 20.3667 45.2552 20.3667 45.5431C20.3667 45.8309 20.6001 46.0643 20.8879 46.0643Z" fill="#5F9600"/>
<path d="M92.9045 85.3913C93.1924 85.3913 93.4257 85.158 93.4257 84.8701C93.4257 84.5822 93.1924 84.3489 92.9045 84.3489C92.6167 84.3489 92.3833 84.5822 92.3833 84.8701C92.3833 85.158 92.6167 85.3913 92.9045 85.3913Z" fill="#5F9600"/>
<path d="M53.3718 77.1452C53.6597 77.1452 53.893 76.9119 53.893 76.624C53.893 76.3361 53.6597 76.1028 53.3718 76.1028C53.0839 76.1028 52.8506 76.3361 52.8506 76.624C52.8506 76.9119 53.0839 77.1452 53.3718 77.1452Z" fill="#5F9600"/>
<path d="M104.301 62.3585C104.589 62.3585 104.822 62.1251 104.822 61.8373C104.822 61.5494 104.589 61.316 104.301 61.316C104.013 61.316 103.78 61.5494 103.78 61.8373C103.78 62.1251 104.013 62.3585 104.301 62.3585Z" fill="#5F9600"/>
<path d="M47.7434 96.3062C48.0313 96.3062 48.2646 96.0729 48.2646 95.785C48.2646 95.4971 48.0313 95.2638 47.7434 95.2638C47.4555 95.2638 47.2222 95.4971 47.2222 95.785C47.2222 96.0729 47.4555 96.3062 47.7434 96.3062Z" fill="#5F9600"/>
<path d="M4.13109 16.3056C4.41895 16.3056 4.65231 16.0723 4.65231 15.7844C4.65231 15.4965 4.41895 15.2632 4.13109 15.2632C3.84322 15.2632 3.60986 15.4965 3.60986 15.7844C3.60986 16.0723 3.84322 16.3056 4.13109 16.3056Z" fill="#5F9600"/>
<path d="M108.303 58.4203C108.591 58.4203 108.825 58.1869 108.825 57.899C108.825 57.6112 108.591 57.3778 108.303 57.3778C108.016 57.3778 107.782 57.6112 107.782 57.899C107.782 58.1869 108.016 58.4203 108.303 58.4203Z" fill="#5F9600"/>
<path d="M108.75 32.3279C109.038 32.3279 109.271 32.0945 109.271 31.8066C109.271 31.5188 109.038 31.2854 108.75 31.2854C108.462 31.2854 108.229 31.5188 108.229 31.8066C108.229 32.0945 108.462 32.3279 108.75 32.3279Z" fill="#5F9600"/>
<path d="M108.064 33.2002C108.352 33.2002 108.585 32.9668 108.585 32.6789C108.585 32.3911 108.352 32.1577 108.064 32.1577C107.776 32.1577 107.543 32.3911 107.543 32.6789C107.543 32.9668 107.776 33.2002 108.064 33.2002Z" fill="#5F9600"/>
<path d="M106.816 70.3847C107.104 70.3847 107.337 70.1514 107.337 69.8635C107.337 69.5756 107.104 69.3423 106.816 69.3423C106.528 69.3423 106.294 69.5756 106.294 69.8635C106.294 70.1514 106.528 70.3847 106.816 70.3847Z" fill="#5F9600"/>
<path d="M54.2815 27.1472C54.5693 27.1472 54.8027 26.9138 54.8027 26.626C54.8027 26.3381 54.5693 26.1047 54.2815 26.1047C53.9936 26.1047 53.7603 26.3381 53.7603 26.626C53.7603 26.9138 53.9936 27.1472 54.2815 27.1472Z" fill="#5F9600"/>
<path d="M95.5427 75.269C95.8306 75.269 96.0639 75.0357 96.0639 74.7478C96.0639 74.4599 95.8306 74.2266 95.5427 74.2266C95.2548 74.2266 95.0215 74.4599 95.0215 74.7478C95.0215 75.0357 95.2548 75.269 95.5427 75.269Z" fill="#5F9600"/>
<path d="M67.0368 21.7434C67.3247 21.7434 67.5581 21.51 67.5581 21.2222C67.5581 20.9343 67.3247 20.7009 67.0368 20.7009C66.749 20.7009 66.5156 20.9343 66.5156 21.2222C66.5156 21.51 66.749 21.7434 67.0368 21.7434Z" fill="#5F9600"/>
<path d="M85.2405 66.6013C85.5281 66.6013 85.7613 66.3681 85.7613 66.0805C85.7613 65.7929 85.5281 65.5597 85.2405 65.5597C84.9529 65.5597 84.7197 65.7929 84.7197 66.0805C84.7197 66.3681 84.9529 66.6013 85.2405 66.6013Z" fill="#5F9600"/>
<path d="M84.0837 67.0288C84.3718 67.0288 84.6053 66.7952 84.6053 66.5071C84.6053 66.219 84.3718 65.9855 84.0837 65.9855C83.7956 65.9855 83.562 66.219 83.562 66.5071C83.562 66.7952 83.7956 67.0288 84.0837 67.0288Z" fill="#5F9600"/>
<path d="M97.4358 118.621C97.7236 118.621 97.957 118.388 97.957 118.1C97.957 117.812 97.7236 117.578 97.4358 117.578C97.1479 117.578 96.9146 117.812 96.9146 118.1C96.9146 118.388 97.1479 118.621 97.4358 118.621Z" fill="#5F9600"/>
<path d="M69.3987 17.2154C69.6865 17.2154 69.9199 16.9821 69.9199 16.6942C69.9199 16.4063 69.6865 16.173 69.3987 16.173C69.1108 16.173 68.8774 16.4063 68.8774 16.6942C68.8774 16.9821 69.1108 17.2154 69.3987 17.2154Z" fill="#5F9600"/>
<path d="M73.7702 53.6498C74.0583 53.6498 74.2919 53.4162 74.2919 53.1281C74.2919 52.84 74.0583 52.6064 73.7702 52.6064C73.4821 52.6064 73.2485 52.84 73.2485 53.1281C73.2485 53.4162 73.4821 53.6498 73.7702 53.6498Z" fill="#5F9600"/>
<path d="M74.5911 9.40622C74.8789 9.40622 75.1123 9.17286 75.1123 8.88499C75.1123 8.59713 74.8789 8.36377 74.5911 8.36377C74.3032 8.36377 74.0698 8.59713 74.0698 8.88499C74.0698 9.17286 74.3032 9.40622 74.5911 9.40622Z" fill="#5F9600"/>
<path d="M109.478 113.035C109.766 113.035 109.999 112.802 109.999 112.514C109.999 112.226 109.766 111.993 109.478 111.993C109.19 111.993 108.957 112.226 108.957 112.514C108.957 112.802 109.19 113.035 109.478 113.035Z" fill="#5F9600"/>
<path d="M58.2024 96.6529C58.4902 96.6529 58.7236 96.4196 58.7236 96.1317C58.7236 95.8438 58.4902 95.6105 58.2024 95.6105C57.9145 95.6105 57.6812 95.8438 57.6812 96.1317C57.6812 96.4196 57.9145 96.6529 58.2024 96.6529Z" fill="#5F9600"/>
<path d="M32.218 92.5328C32.5059 92.5328 32.7392 92.2994 32.7392 92.0116C32.7392 91.7237 32.5059 91.4904 32.218 91.4904C31.9301 91.4904 31.6968 91.7237 31.6968 92.0116C31.6968 92.2994 31.9301 92.5328 32.218 92.5328Z" fill="#5F9600"/>
<path d="M60.5755 82.2322C60.8631 82.2322 61.0963 81.9991 61.0963 81.7115C61.0963 81.4238 60.8631 81.1907 60.5755 81.1907C60.2879 81.1907 60.0547 81.4238 60.0547 81.7115C60.0547 81.9991 60.2879 82.2322 60.5755 82.2322Z" fill="#5F9600"/>
<path d="M30.9104 81.8477C31.1981 81.8477 31.4312 81.6146 31.4312 81.3269C31.4312 81.0393 31.1981 80.8062 30.9104 80.8062C30.6228 80.8062 30.3896 81.0393 30.3896 81.3269C30.3896 81.6146 30.6228 81.8477 30.9104 81.8477Z" fill="#5F9600"/>
<path d="M32.3391 98.1635C32.6268 98.1635 32.8599 97.9304 32.8599 97.6427C32.8599 97.3551 32.6268 97.1219 32.3391 97.1219C32.0515 97.1219 31.8184 97.3551 31.8184 97.6427C31.8184 97.9304 32.0515 98.1635 32.3391 98.1635Z" fill="#5F9600"/>
<path d="M12.1775 100.581C12.4651 100.581 12.6983 100.347 12.6983 100.06C12.6983 99.7722 12.4651 99.5391 12.1775 99.5391C11.8899 99.5391 11.6567 99.7722 11.6567 100.06C11.6567 100.347 11.8899 100.581 12.1775 100.581Z" fill="#5F9600"/>
<path d="M12.6722 108.656C12.9598 108.656 13.1929 108.423 13.1929 108.135C13.1929 107.848 12.9598 107.615 12.6722 107.615C12.3845 107.615 12.1514 107.848 12.1514 108.135C12.1514 108.423 12.3845 108.656 12.6722 108.656Z" fill="#5F9600"/>
<path d="M21.6267 116.732C21.9144 116.732 22.1475 116.498 22.1475 116.211C22.1475 115.923 21.9144 115.69 21.6267 115.69C21.3391 115.69 21.106 115.923 21.106 116.211C21.106 116.498 21.3391 116.732 21.6267 116.732Z" fill="#5F9600"/>
<path d="M32.7786 106.349C33.0662 106.349 33.2994 106.116 33.2994 105.828C33.2994 105.54 33.0662 105.307 32.7786 105.307C32.491 105.307 32.2578 105.54 32.2578 105.828C32.2578 106.116 32.491 106.349 32.7786 106.349Z" fill="#5F9600"/>
<path d="M10.8592 89.8682C11.1468 89.8682 11.3799 89.6351 11.3799 89.3474C11.3799 89.0598 11.1468 88.8267 10.8592 88.8267C10.5715 88.8267 10.3384 89.0598 10.3384 89.3474C10.3384 89.6351 10.5715 89.8682 10.8592 89.8682Z" fill="#5F9600"/>
<path d="M49.2873 1.71835C49.5752 1.71835 49.8086 1.48499 49.8086 1.19713C49.8086 0.909264 49.5752 0.675903 49.2873 0.675903C48.9995 0.675903 48.7661 0.909264 48.7661 1.19713C48.7661 1.48499 48.9995 1.71835 49.2873 1.71835Z" fill="#5F9600"/>
<path d="M95.3494 47.3936C95.6372 47.3936 95.8706 47.1603 95.8706 46.8724C95.8706 46.5846 95.6372 46.3512 95.3494 46.3512C95.0615 46.3512 94.8281 46.5846 94.8281 46.8724C94.8281 47.1603 95.0615 47.3936 95.3494 47.3936Z" fill="#5F9600"/>
<path d="M117.392 54.1464C117.68 54.1464 117.913 53.9128 117.913 53.6247C117.913 53.3366 117.68 53.103 117.392 53.103C117.104 53.103 116.87 53.3366 116.87 53.6247C116.87 53.9128 117.104 54.1464 117.392 54.1464Z" fill="#5F9600"/>
<path d="M76.5158 112.758C76.8037 112.758 77.0371 112.525 77.0371 112.237C77.0371 111.949 76.8037 111.716 76.5158 111.716C76.228 111.716 75.9946 111.949 75.9946 112.237C75.9946 112.525 76.228 112.758 76.5158 112.758Z" fill="#5F9600"/>
<path d="M107.183 86.25C107.471 86.25 107.705 86.0166 107.705 85.7287C107.705 85.4409 107.471 85.2075 107.183 85.2075C106.895 85.2075 106.662 85.4409 106.662 85.7287C106.662 86.0166 106.895 86.25 107.183 86.25Z" fill="#5F9600"/>
<path d="M92.2116 18.1941C92.4997 18.1941 92.7333 17.9605 92.7333 17.6724C92.7333 17.3843 92.4997 17.1508 92.2116 17.1508C91.9235 17.1508 91.6899 17.3843 91.6899 17.6724C91.6899 17.9605 91.9235 18.1941 92.2116 18.1941Z" fill="#5F9600"/>
<path d="M11.4143 29.0607C11.702 29.0607 11.9351 28.8276 11.9351 28.54C11.9351 28.2523 11.702 28.0192 11.4143 28.0192C11.1267 28.0192 10.8936 28.2523 10.8936 28.54C10.8936 28.8276 11.1267 29.0607 11.4143 29.0607Z" fill="#5F9600"/>
<path d="M95.9343 31.1703C96.2222 31.1703 96.4555 30.9369 96.4555 30.649C96.4555 30.3612 96.2222 30.1278 95.9343 30.1278C95.6464 30.1278 95.4131 30.3612 95.4131 30.649C95.4131 30.9369 95.6464 31.1703 95.9343 31.1703Z" fill="#5F9600"/>
<path d="M87.9446 114.511C88.2324 114.511 88.4658 114.278 88.4658 113.99C88.4658 113.702 88.2324 113.469 87.9446 113.469C87.6567 113.469 87.4233 113.702 87.4233 113.99C87.4233 114.278 87.6567 114.511 87.9446 114.511Z" fill="#5F9600"/>
<path d="M98.7644 58.0999C99.0523 58.0999 99.2856 57.8666 99.2856 57.5787C99.2856 57.2909 99.0523 57.0575 98.7644 57.0575C98.4765 57.0575 98.2432 57.2909 98.2432 57.5787C98.2432 57.8666 98.4765 58.0999 98.7644 58.0999Z" fill="#5F9600"/>
<path d="M96.4529 59.2685C96.7407 59.2685 96.9741 59.0352 96.9741 58.7473C96.9741 58.4594 96.7407 58.2261 96.4529 58.2261C96.165 58.2261 95.9316 58.4594 95.9316 58.7473C95.9316 59.0352 96.165 59.2685 96.4529 59.2685Z" fill="#5F9600"/>
<path d="M80.741 60.0952C81.0288 60.0952 81.2622 59.8618 81.2622 59.574C81.2622 59.2861 81.0288 59.0527 80.741 59.0527C80.4531 59.0527 80.2197 59.2861 80.2197 59.574C80.2197 59.8618 80.4531 60.0952 80.741 60.0952Z" fill="#5F9600"/>
<path d="M96.5046 11.6748C96.7925 11.6748 97.0258 11.4414 97.0258 11.1535C97.0258 10.8657 96.7925 10.6323 96.5046 10.6323C96.2168 10.6323 95.9834 10.8657 95.9834 11.1535C95.9834 11.4414 96.2168 11.6748 96.5046 11.6748Z" fill="#5F9600"/>
<path d="M95.8176 14.1439C96.1055 14.1439 96.3388 13.9105 96.3388 13.6227C96.3388 13.3348 96.1055 13.1014 95.8176 13.1014C95.5297 13.1014 95.2964 13.3348 95.2964 13.6227C95.2964 13.9105 95.5297 14.1439 95.8176 14.1439Z" fill="#5F9600"/>
<path d="M79.2097 18.7232C79.4974 18.7232 79.7305 18.49 79.7305 18.2024C79.7305 17.9148 79.4974 17.6816 79.2097 17.6816C78.9221 17.6816 78.689 17.9148 78.689 18.2024C78.689 18.49 78.9221 18.7232 79.2097 18.7232Z" fill="#5F9600"/>
<path d="M64.1467 24.5253C64.4348 24.5253 64.6683 24.2917 64.6683 24.0036C64.6683 23.7155 64.4348 23.4819 64.1467 23.4819C63.8586 23.4819 63.625 23.7155 63.625 24.0036C63.625 24.2917 63.8586 24.5253 64.1467 24.5253Z" fill="#5F9600"/>
<path d="M76.1574 76.3024C76.4455 76.3024 76.6791 76.0688 76.6791 75.7807C76.6791 75.4926 76.4455 75.259 76.1574 75.259C75.8693 75.259 75.6357 75.4926 75.6357 75.7807C75.6357 76.0688 75.8693 76.3024 76.1574 76.3024Z" fill="#5F9600"/>
<path d="M42.9372 18.4258C43.2251 18.4258 43.4585 18.1924 43.4585 17.9045C43.4585 17.6167 43.2251 17.3833 42.9372 17.3833C42.6494 17.3833 42.416 17.6167 42.416 17.9045C42.416 18.1924 42.6494 18.4258 42.9372 18.4258Z" fill="#5F9600"/>
<path d="M18.1052 64.287C18.3931 64.287 18.6264 64.0536 18.6264 63.7657C18.6264 63.4779 18.3931 63.2445 18.1052 63.2445C17.8173 63.2445 17.584 63.4779 17.584 63.7657C17.584 64.0536 17.8173 64.287 18.1052 64.287Z" fill="#5F9600"/>
<path d="M88.7068 105.157C88.9946 105.157 89.228 104.924 89.228 104.636C89.228 104.348 88.9946 104.115 88.7068 104.115C88.4189 104.115 88.1855 104.348 88.1855 104.636C88.1855 104.924 88.4189 105.157 88.7068 105.157Z" fill="#5F9600"/>
<path d="M37.509 16.1052C37.7969 16.1052 38.0302 15.8718 38.0302 15.584C38.0302 15.2961 37.7969 15.0627 37.509 15.0627C37.2212 15.0627 36.9878 15.2961 36.9878 15.584C36.9878 15.8718 37.2212 16.1052 37.509 16.1052Z" fill="#5F9600"/>
<path d="M103.347 93.2702C103.635 93.2702 103.869 93.0369 103.869 92.749C103.869 92.4611 103.635 92.2278 103.347 92.2278C103.06 92.2278 102.826 92.4611 102.826 92.749C102.826 93.0369 103.06 93.2702 103.347 93.2702Z" fill="#5F9600"/>
<path d="M40.0261 117.68C40.314 117.68 40.5473 117.447 40.5473 117.159C40.5473 116.871 40.314 116.638 40.0261 116.638C39.7382 116.638 39.5049 116.871 39.5049 117.159C39.5049 117.447 39.7382 117.68 40.0261 117.68Z" fill="#5F9600"/>
<path d="M114.933 58.9604C115.221 58.9604 115.454 58.7271 115.454 58.4392C115.454 58.1513 115.221 57.918 114.933 57.918C114.645 57.918 114.412 58.1513 114.412 58.4392C114.412 58.7271 114.645 58.9604 114.933 58.9604Z" fill="#5F9600"/>
<path d="M19.7283 36.8294C20.0161 36.8294 20.2495 36.5961 20.2495 36.3082C20.2495 36.0203 20.0161 35.787 19.7283 35.787C19.4404 35.787 19.207 36.0203 19.207 36.3082C19.207 36.5961 19.4404 36.8294 19.7283 36.8294Z" fill="#5F9600"/>
<path d="M56.8191 11.8018C57.1069 11.8018 57.3403 11.5685 57.3403 11.2806C57.3403 10.9928 57.1069 10.7594 56.8191 10.7594C56.5312 10.7594 56.2979 10.9928 56.2979 11.2806C56.2979 11.5685 56.5312 11.8018 56.8191 11.8018Z" fill="#5F9600"/>
<path d="M2.0471 64.6872C2.33497 64.6872 2.56833 64.4539 2.56833 64.166C2.56833 63.8781 2.33497 63.6448 2.0471 63.6448C1.75924 63.6448 1.52588 63.8781 1.52588 64.166C1.52588 64.4539 1.75924 64.6872 2.0471 64.6872Z" fill="#5F9600"/>
<path d="M39.9187 30.0152C40.2066 30.0152 40.4399 29.7819 40.4399 29.494C40.4399 29.2061 40.2066 28.9728 39.9187 28.9728C39.6308 28.9728 39.3975 29.2061 39.3975 29.494C39.3975 29.7819 39.6308 30.0152 39.9187 30.0152Z" fill="#5F9600"/>
<path d="M39.1545 35.2459C39.4424 35.2459 39.6758 35.0126 39.6758 34.7247C39.6758 34.4369 39.4424 34.2035 39.1545 34.2035C38.8667 34.2035 38.6333 34.4369 38.6333 34.7247C38.6333 35.0126 38.8667 35.2459 39.1545 35.2459Z" fill="#5F9600"/>
<path d="M30.9104 38.1096C31.1982 38.1096 31.4316 37.8762 31.4316 37.5884C31.4316 37.3005 31.1982 37.0671 30.9104 37.0671C30.6225 37.0671 30.3892 37.3005 30.3892 37.5884C30.3892 37.8762 30.6225 38.1096 30.9104 38.1096Z" fill="#5F9600"/>
<path d="M31.4197 39.1073C31.7075 39.1073 31.9409 38.8739 31.9409 38.586C31.9409 38.2982 31.7075 38.0648 31.4197 38.0648C31.1318 38.0648 30.8984 38.2982 30.8984 38.586C30.8984 38.8739 31.1318 39.1073 31.4197 39.1073Z" fill="#5F9600"/>
<path d="M28.885 21.5869C29.1729 21.5869 29.4062 21.3535 29.4062 21.0657C29.4062 20.7778 29.1729 20.5444 28.885 20.5444C28.5971 20.5444 28.3638 20.7778 28.3638 21.0657C28.3638 21.3535 28.5971 21.5869 28.885 21.5869Z" fill="#5F9600"/>
<path d="M0.260971 33.899C0.548836 33.899 0.782196 33.6657 0.782196 33.3778C0.782196 33.0899 0.548836 32.8566 0.260971 32.8566C-0.0268935 32.8566 -0.260254 33.0899 -0.260254 33.3778C-0.260254 33.6657 -0.0268935 33.899 0.260971 33.899Z" fill="#5F9600"/>
<path d="M45.3469 27.1912C45.635 27.1912 45.8685 26.9576 45.8685 26.6695C45.8685 26.3814 45.635 26.1478 45.3469 26.1478C45.0588 26.1478 44.8252 26.3814 44.8252 26.6695C44.8252 26.9576 45.0588 27.1912 45.3469 27.1912Z" fill="#5F9600"/>
<path d="M2.28587 23.849C2.57374 23.849 2.8071 23.6156 2.8071 23.3277C2.8071 23.0399 2.57374 22.8065 2.28587 22.8065C1.99801 22.8065 1.76465 23.0399 1.76465 23.3277C1.76465 23.6156 1.99801 23.849 2.28587 23.849Z" fill="#5F9600"/>
<path d="M1.92704 56.2786C2.21466 56.2786 2.44782 56.0455 2.44782 55.7578C2.44782 55.4702 2.21466 55.2371 1.92704 55.2371C1.63941 55.2371 1.40625 55.4702 1.40625 55.7578C1.40625 56.0455 1.63941 56.2786 1.92704 56.2786Z" fill="#5F9600"/>
<path d="M6.6599 51.8285C6.94776 51.8285 7.18112 51.5951 7.18112 51.3072C7.18112 51.0194 6.94776 50.786 6.6599 50.786C6.37203 50.786 6.13867 51.0194 6.13867 51.3072C6.13867 51.5951 6.37203 51.8285 6.6599 51.8285Z" fill="#5F9600"/>
<path d="M20.6565 19.7108C20.9443 19.7108 21.1777 19.4774 21.1777 19.1896C21.1777 18.9017 20.9443 18.6683 20.6565 18.6683C20.3686 18.6683 20.1353 18.9017 20.1353 19.1896C20.1353 19.4774 20.3686 19.7108 20.6565 19.7108Z" fill="#5F9600"/>
<path d="M98.055 108.871C98.3426 108.871 98.5758 108.638 98.5758 108.351C98.5758 108.063 98.3426 107.83 98.055 107.83C97.7673 107.83 97.5342 108.063 97.5342 108.351C97.5342 108.638 97.7673 108.871 98.055 108.871Z" fill="#5F9600"/>
<path d="M7.08714 71.6245C7.37501 71.6245 7.60837 71.3911 7.60837 71.1033C7.60837 70.8154 7.37501 70.582 7.08714 70.582C6.79928 70.582 6.56592 70.8154 6.56592 71.1033C6.56592 71.3911 6.79928 71.6245 7.08714 71.6245Z" fill="#5F9600"/>
<path d="M4.06566 95.0819C4.35352 95.0819 4.58688 94.8485 4.58688 94.5607C4.58688 94.2728 4.35352 94.0394 4.06566 94.0394C3.77779 94.0394 3.54443 94.2728 3.54443 94.5607C3.54443 94.8485 3.77779 95.0819 4.06566 95.0819Z" fill="#5F9600"/>
<path d="M19.008 97.3891C19.2959 97.3891 19.5293 97.1558 19.5293 96.8679C19.5293 96.58 19.2959 96.3467 19.008 96.3467C18.7202 96.3467 18.4868 96.58 18.4868 96.8679C18.4868 97.1558 18.7202 97.3891 19.008 97.3891Z" fill="#5F9600"/>
<path d="M19.7224 110.354C20.0103 110.354 20.2436 110.12 20.2436 109.833C20.2436 109.545 20.0103 109.311 19.7224 109.311C19.4345 109.311 19.2012 109.545 19.2012 109.833C19.2012 110.12 19.4345 110.354 19.7224 110.354Z" fill="#5F9600"/>
<path d="M29.2263 117.056C29.5142 117.056 29.7475 116.823 29.7475 116.535C29.7475 116.247 29.5142 116.013 29.2263 116.013C28.9384 116.013 28.7051 116.247 28.7051 116.535C28.7051 116.823 28.9384 117.056 29.2263 117.056Z" fill="#5F9600"/>
<path d="M3.73607 108.321C4.02393 108.321 4.25729 108.088 4.25729 107.8C4.25729 107.512 4.02393 107.279 3.73607 107.279C3.4482 107.279 3.21484 107.512 3.21484 107.8C3.21484 108.088 3.4482 108.321 3.73607 108.321Z" fill="#5F9600"/>
<path d="M21.2717 2.09946C21.5596 2.09946 21.7929 1.8661 21.7929 1.57823C21.7929 1.29037 21.5596 1.05701 21.2717 1.05701C20.9838 1.05701 20.7505 1.29037 20.7505 1.57823C20.7505 1.8661 20.9838 2.09946 21.2717 2.09946Z" fill="#5F9600"/>
</g>
<mask id="mask4_1847_73087" style="mask-type:luminance" maskUnits="userSpaceOnUse" x="0" y="-1" width="121" height="122">
<path d="M120 -0.295776H0.000488281V120H120V-0.295776Z" fill="white"/>
</mask>
<g mask="url(#mask4_1847_73087)">
<path d="M72.6519 5.71288L73.6477 3.88288C73.6477 3.88288 71.8125 2.56312 69.5847 2.40491L68.5889 4.23491C70.8175 4.39268 72.6519 5.71288 72.6519 5.71288Z" fill="#5F9600"/>
<path d="M74.3683 8.84284C74.3574 8.47588 74.2242 8.31459 73.8722 8.00695C73.5206 7.69931 73.4749 7.38245 73.4749 7.38245L73.0464 7.79907C73.0464 7.79907 73.0921 8.11594 73.4437 8.42358C73.7953 8.73165 73.9289 8.89294 73.9398 9.25947L74.3683 8.84284Z" fill="#5F9600"/>
<path d="M63.8539 51.2079L64.7957 50.3425C64.7957 50.3425 63.5225 49.2135 62.9037 48.2339L61.9619 49.0992C62.5816 50.0784 63.8539 51.2079 63.8539 51.2079Z" fill="#5F9600"/>
<path d="M73.498 47.6279L73.5055 47.6433C73.5055 47.6433 73.5029 47.6376 73.498 47.6279Z" fill="#5F9600"/>
<path d="M71.2874 45.9561C72.8392 46.364 73.4286 47.4855 73.498 47.6275L72.8854 46.3363C72.8854 46.3363 72.3259 45.0855 70.6678 44.6495C69.0096 44.2136 67.6187 45.7588 67.6187 45.7588L68.2379 47.0649C68.2379 47.0649 69.6293 45.5201 71.2874 45.9561Z" fill="#5F9600"/>
<path d="M58.0055 60.8708L59.0722 60.0275C57.9664 58.8277 56.4045 59.0017 56.4045 59.0017L55.3379 59.8446C55.3379 59.8446 56.9002 59.671 58.0055 60.8708Z" fill="#5F9600"/>
<path d="M50.16 34.1995L51.1444 32.7998C51.1444 32.7998 48.8899 31.6664 48.5704 29.4487L47.5859 30.848C47.9054 33.0661 50.16 34.1995 50.16 34.1995Z" fill="#5F9600"/>
<path d="M30.7214 66.3182C31.4914 65.615 31.5916 65.0292 31.6034 63.7007C31.6144 62.3725 32.2117 61.6861 32.2117 61.6861L30.5206 61.5358C30.5206 61.5358 29.9242 62.2218 29.9123 63.5499C29.9013 64.878 29.8007 65.4639 29.0303 66.1675L30.7214 66.3182Z" fill="#5F9600"/>
<path d="M14.9001 114.991C15.6701 114.288 15.7703 113.702 15.7821 112.373C15.7931 111.045 16.3904 110.359 16.3904 110.359L14.6993 110.208C14.6993 110.208 14.1029 110.894 14.091 112.223C14.08 113.551 13.9794 114.136 13.209 114.84L14.9001 114.991Z" fill="#5F9600"/>
<path d="M21.667 53.0252C22.4347 52.362 22.5486 51.795 22.5947 50.5034C22.6417 49.2122 23.2412 48.5609 23.2412 48.5609L21.6006 48.3684C21.6006 48.3684 21.0016 49.0197 20.9546 50.3114C20.9084 51.603 20.7941 52.1699 20.0264 52.8331L21.667 53.0252Z" fill="#5F9600"/>
<path d="M13.0602 60.6502L15.5784 60.5689C15.5784 60.5689 15.8329 57.8468 14.6344 55.4248L12.1162 55.5061C13.3147 57.9281 13.0602 60.6502 13.0602 60.6502Z" fill="#5F9600"/>
<path d="M34.952 50.1783L36.0643 49.8944C36.0643 49.8944 35.9101 48.6586 35.1397 47.6987L34.0273 47.9826C34.7982 48.9425 34.952 50.1783 34.952 50.1783Z" fill="#5F9600"/>
<path d="M76.584 43.7491L77.4801 42.5897C76.0118 41.6228 74.4244 42.2104 74.4244 42.2104L73.5278 43.3693C73.5278 43.3693 75.1161 42.7818 76.584 43.7491Z" fill="#5F9600"/>
<path d="M15.8484 0.0233014C16.113 -0.424531 16.0747 -0.718104 15.8862 -1.35228C15.6972 -1.98645 15.8814 -2.40088 15.8814 -2.40088L15.0534 -2.22597C15.0534 -2.22597 14.8697 -1.81153 15.0582 -1.17736C15.2472 -0.54319 15.285 -0.249177 15.0204 0.198215L15.8484 0.0233014Z" fill="#5F9600"/>
<path d="M78.6512 36.0581L80.1327 33.7904C77.2853 32.2232 74.4454 33.5385 74.4454 33.5385L72.9639 35.8063C72.9639 35.8063 75.8042 34.4905 78.6512 36.0581Z" fill="#5F9600"/>
<path d="M10.1754 81.1187L11.2451 81.1068C11.2451 81.1068 10.1451 80.3988 11.329 78.1377L10.2593 78.15C9.07537 80.4107 10.1754 81.1187 10.1754 81.1187Z" fill="#5F9600"/>
<path d="M30.4969 29.8782L30.9882 29.3877C30.9882 29.3877 30.1659 28.7773 30.1927 27.8684L29.7018 28.3593C29.6746 29.2677 30.4969 29.8782 30.4969 29.8782Z" fill="#5F9600"/>
<path d="M92.5961 14.4884C92.5728 13.7558 92.3061 13.4345 91.6024 12.821C90.8988 12.2075 90.8057 11.5751 90.8057 11.5751L89.9526 12.4083C89.9526 12.4083 90.0458 13.0407 90.7494 13.6543C91.453 14.2673 91.7198 14.5886 91.7426 15.3217L92.5961 14.4884Z" fill="#5F9600"/>
<path d="M35.5346 59.7958C35.822 59.5014 35.8488 59.2684 35.8229 58.7455C35.797 58.2225 36.0167 57.939 36.0167 57.939L35.3474 57.9175C35.3474 57.9175 35.1281 58.2014 35.1536 58.7239C35.1795 59.2469 35.1531 59.4803 34.8657 59.7743L35.5346 59.7958Z" fill="#5F9600"/>
<path d="M36.749 38.6743L36.7508 38.6822C36.7508 38.6822 36.7499 38.6796 36.749 38.6743Z" fill="#5F9600"/>
<path d="M35.9253 37.6772C36.5867 38.0301 36.7331 38.6027 36.7493 38.6748L36.6105 38.0222C36.6105 38.0222 36.4914 37.3937 35.7855 37.0171C35.0797 36.64 34.2808 37.1911 34.2808 37.1911L34.421 37.8512C34.421 37.8512 35.2199 37.3005 35.9253 37.6772Z" fill="#5F9600"/>
<path d="M31.2329 78.7094L33.2304 77.4037C33.2304 77.4037 30.8945 74.773 31.6236 71.7357L29.6266 73.0414C28.8967 76.0787 31.2329 78.7094 31.2329 78.7094Z" fill="#5F9600"/>
<path d="M85.1807 30.2794L85.1908 30.2922C85.1908 30.2922 85.1877 30.2878 85.1807 30.2794Z" fill="#5F9600"/>
<path d="M82.6843 29.1605C84.2682 29.2097 85.0839 30.1586 85.1815 30.2794L84.3069 29.1724C84.3069 29.1724 83.4916 28.0934 81.8001 28.0407C80.1076 27.988 79.1113 29.7824 79.1113 29.7824L79.9964 30.9022C79.9956 30.9022 80.9928 29.1078 82.6843 29.1605Z" fill="#5F9600"/>
<path d="M58.8271 47.8867L59.4411 47.3418C59.4411 47.3418 58.6364 46.6013 58.2492 45.9653L57.6353 46.5103C58.022 47.1467 58.8271 47.8867 58.8271 47.8867Z" fill="#5F9600"/>
<path d="M16.144 75.096L16.9886 75.0415C16.9886 75.0415 16.0899 74.5278 16.9311 72.6903L16.0859 72.7444C15.2448 74.5823 16.144 75.096 16.144 75.096Z" fill="#5F9600"/>
<path d="M5.22954 69.5237C6.04346 69.0421 6.24122 68.5406 6.49656 67.3641C6.75278 66.1876 7.40937 65.6888 7.40937 65.6888L5.93666 65.2423C5.93666 65.2423 5.27964 65.7411 5.0243 66.9176C4.76808 68.0941 4.5712 68.5956 3.75684 69.0772L5.22954 69.5237Z" fill="#5F9600"/>
<path d="M70.3161 52.224L69.9614 50.5421C69.9614 50.5421 68.8381 49.6074 66.7246 49.9563L67.0801 51.6382C69.1936 51.2888 70.3161 52.224 70.3161 52.224Z" fill="#5F9600"/>
<path d="M55.799 8.4517L56.2741 7.52966C56.2741 7.52966 55.6526 8.71011 53.2495 7.70677L52.7749 8.62881C55.1784 9.63214 55.799 8.4517 55.799 8.4517Z" fill="#5F9600"/>
<path d="M26.1191 71.8315L26.6614 69.2851C26.6614 69.2851 25.6818 67.3 22.5399 66.4834L21.998 69.0298C25.1395 69.8463 26.1191 71.8315 26.1191 71.8315Z" fill="#5F9600"/>
<path d="M68.1588 18.8006L69.4034 16.3215C69.4034 16.3215 65.9517 15.0088 63.9424 13.4969L62.6982 15.9761C64.7076 17.4879 68.1588 18.8006 68.1588 18.8006Z" fill="#5F9600"/>
<path d="M58.0835 36.404L58.6962 35.9918C58.6962 35.9918 57.7935 36.0006 57.6194 34.2471L57.0063 34.6593C57.1804 36.4133 58.0835 36.404 58.0835 36.404Z" fill="#5F9600"/>
<path d="M80.6812 4.23005L81.1915 1.36683C81.1915 1.36683 77.3302 1.07853 74.8598 0.158691L74.3496 3.02191C76.8208 3.94131 80.6812 4.23005 80.6812 4.23005Z" fill="#5F9600"/>
<path d="M19.3841 89.4451L20.8621 87.5672C20.8621 87.5672 18.1755 85.8642 16.7397 84.2412L15.2622 86.1191C16.698 87.7421 19.3841 89.4451 19.3841 89.4451Z" fill="#5F9600"/>
<path d="M49.1908 21.7082L48.8911 20.7634C48.8911 20.7634 48.1936 20.29 47 20.6104L47.2993 21.5553C48.4929 21.2349 49.1908 21.7082 49.1908 21.7082Z" fill="#5F9600"/>
<path d="M35.4186 88.3173L35.0367 86.0386C35.0367 86.0386 33.5815 84.7197 30.7231 85.0687L31.1051 87.3469C33.9634 86.998 35.4186 88.3173 35.4186 88.3173Z" fill="#5F9600"/>
<path d="M20.1491 72.503L21.0729 71.9866C21.0729 71.9866 20.1197 70.7517 20.535 69.431L19.6117 69.947C19.1964 71.2676 20.1491 72.503 20.1491 72.503Z" fill="#5F9600"/>
<path d="M36.4473 71.7787L37.2427 71.4056C37.2427 71.4056 36.6415 70.4032 36.438 69.6332L35.6426 70.0063C35.8456 70.7754 36.4473 71.7787 36.4473 71.7787Z" fill="#5F9600"/>
<path d="M27.1145 109.957L28.9146 108.529C27.0424 106.505 24.4042 106.803 24.4042 106.803L22.605 108.232C22.605 108.232 25.2432 107.933 27.1145 109.957Z" fill="#5F9600"/>
<path d="M0.533886 63.5557L1.37286 63.4546C1.37286 63.4546 0.292171 63.575 -0.129291 61.4954L-0.968262 61.5969C-0.546799 63.6761 0.533886 63.5557 0.533886 63.5557Z" fill="#5F9600"/>
<path d="M4.94107 82.6911C5.43901 82.4125 5.56558 82.1128 5.73741 81.4061C5.90881 80.6998 6.31269 80.408 6.31269 80.408L5.42978 80.1171C5.42978 80.1171 5.02633 80.4084 4.85493 81.1151C4.6831 81.8214 4.55609 82.1211 4.05859 82.4002L4.94107 82.6911Z" fill="#5F9600"/>
<path d="M32.4724 1.62263L32.9269 1.12953C32.9269 1.12953 32.1314 1.32642 31.6102 -0.186279L31.1558 0.30638C31.677 1.81951 32.4724 1.62263 32.4724 1.62263Z" fill="#5F9600"/>
<path d="M27.3077 54.1411L28.144 53.7561C28.144 53.7561 27.5213 52.7 27.3138 51.8914L26.4771 52.2759C26.6849 53.0854 27.3077 54.1411 27.3077 54.1411Z" fill="#5F9600"/>
<path d="M0.783906 73.6409L1.42863 73.397C1.42863 73.397 0.933329 72.5092 1.32798 71.6975L0.682825 71.9414C0.288171 72.7531 0.783906 73.6409 0.783906 73.6409Z" fill="#5F9600"/>
<path d="M3.69286 51.447L6.06782 51.5121C6.06782 51.5121 6.46072 48.9649 5.46881 46.6185L3.09473 46.553C4.0862 48.9002 3.69286 51.447 3.69286 51.447Z" fill="#5F9600"/>
<path d="M47.6494 43.1232C47.848 42.8213 47.8322 42.616 47.7227 42.1691C47.6138 41.7221 47.7561 41.4404 47.7561 41.4404L47.176 41.5336C47.176 41.5336 47.0332 41.8149 47.1426 42.2618C47.2516 42.7092 47.267 42.9145 47.0684 43.2159L47.6494 43.1232Z" fill="#5F9600"/>
<path d="M17.6388 37.0022L18.2519 36.8818C18.2519 36.8818 17.5448 36.5922 17.9847 35.1674L17.3716 35.2878C16.9308 36.7126 17.6388 37.0022 17.6388 37.0022Z" fill="#5F9600"/>
<path d="M22.3629 62.06L23.2888 61.4847C23.2888 61.4847 22.249 60.2577 22.6147 58.8777L21.6883 59.4534C21.3226 60.8329 22.3629 62.06 22.3629 62.06Z" fill="#5F9600"/>
<path d="M85.6342 16.3057C85.6513 15.0958 85.2355 14.5447 84.1215 13.4798C83.0069 12.4149 82.9015 11.3641 82.9015 11.3641L81.4292 12.6747C81.4292 12.6747 81.5356 13.725 82.6501 14.7899C83.7642 15.8548 84.1799 16.4059 84.1632 17.6158L85.6342 16.3057Z" fill="#5F9600"/>
<path d="M29.2963 33.7553L29.306 33.1774C29.306 33.1774 29.0089 32.7867 28.2895 32.7423L28.2798 33.3194C28.9988 33.3642 29.2963 33.7553 29.2963 33.7553Z" fill="#5F9600"/>
<path d="M1.36798 39.0783L1.85361 38.993C1.85361 38.993 1.22691 39.0972 0.915754 37.897L0.429688 37.9827C0.74128 39.1829 1.36798 39.0783 1.36798 39.0783Z" fill="#5F9600"/>
<path d="M13.144 24.7824L13.5944 24.5653C13.2934 24.0458 12.7185 23.9825 12.7185 23.9825L12.2681 24.1996C12.2681 24.1996 12.8429 24.2629 13.144 24.7824Z" fill="#5F9600"/>
<path d="M43.5249 29.4409L45.2978 27.7959C45.2978 27.7959 42.8802 25.671 41.6997 23.823L39.9277 25.468C41.1073 27.3156 43.5249 29.4409 43.5249 29.4409Z" fill="#5F9600"/>
<path d="M69.732 29.0023L70.7195 27.5226C70.7195 27.5226 68.6258 26.4142 67.466 25.2931L66.4785 26.7733C67.6383 27.8939 69.732 29.0023 69.732 29.0023Z" fill="#5F9600"/>
<path d="M75.7204 15.5634L76.1256 14.7249C76.1256 14.7249 75.5934 15.7985 73.4149 14.9503L73.0088 15.7884C75.1882 16.6366 75.7204 15.5634 75.7204 15.5634Z" fill="#5F9600"/>
<path d="M5.95842 57.3361L7.28126 57.1019C7.28126 57.1019 5.57695 57.3871 4.72655 54.1235L3.40283 54.3582C4.25411 57.6209 5.95842 57.3361 5.95842 57.3361Z" fill="#5F9600"/>
<path d="M22.4271 41.4001L23.0696 41.1452C23.0696 41.1452 22.2394 41.4651 21.473 39.9076L20.8296 40.1625C21.5974 41.7205 22.4271 41.4001 22.4271 41.4001Z" fill="#5F9600"/>
<path d="M43.7568 60.9891L43.8064 59.5739C43.8064 59.5739 43.0949 58.6031 41.3348 58.462L41.2847 59.8772C43.0448 60.0187 43.7568 60.9891 43.7568 60.9891Z" fill="#5F9600"/>
<path d="M33.4955 48.0257L35.616 46.8109C35.616 46.8109 33.7205 44.167 32.9813 42.0795L30.8608 43.2938C31.6005 45.3822 33.4955 48.0257 33.4955 48.0257Z" fill="#5F9600"/>
<path d="M-0.47665 19.7924L0.0124928 19.7911C0.0124928 19.7911 0.0770966 19.2638 -0.142205 18.7874L-0.631348 18.7891C-0.412046 19.2655 -0.47665 19.7924 -0.47665 19.7924Z" fill="#5F9600"/>
<path d="M55.6441 22.6404L56.9212 20.8767C56.9212 20.8767 54.4131 19.4238 53.0467 17.999L51.77 19.7631C53.1359 21.1875 55.6441 22.6404 55.6441 22.6404Z" fill="#5F9600"/>
<path d="M83.8563 23.2604L84.7304 21.6765C84.7304 21.6765 83.5864 23.7034 79.4474 21.8316L78.5732 23.4155C82.7114 25.2869 83.8563 23.2604 83.8563 23.2604Z" fill="#5F9600"/>
<path d="M60.6521 4.80968L61.7667 2.94496C61.7667 2.94496 59.9112 1.49159 57.596 1.2323L56.4814 3.09702C58.7962 3.35587 60.6521 4.80968 60.6521 4.80968Z" fill="#5F9600"/>
<path d="M43.0519 5.74928C43.1165 5.3498 43.0062 5.14763 42.6894 4.74111C42.3729 4.33415 42.3892 3.98169 42.3892 3.98169L41.8385 4.34338C41.8385 4.34338 41.8223 4.69585 42.1391 5.10281C42.456 5.50977 42.5663 5.71149 42.5017 6.11142L43.0519 5.74928Z" fill="#5F9600"/>
<path d="M52.8392 56.2505L52.7965 55.525C52.7965 55.525 52.3847 55.0635 51.4785 55.0767L51.522 55.8023C52.4287 55.7891 52.8392 56.2505 52.8392 56.2505Z" fill="#5F9600"/>
<path d="M15.5689 51.1148L17.4895 50.8651C17.4895 50.8651 15.3602 49.8275 17.0065 45.5083L15.0859 45.7579C13.4396 50.0771 15.5689 51.1148 15.5689 51.1148Z" fill="#5F9600"/>
<path d="M69.1114 41.1289C69.274 40.7369 69.2107 40.5044 68.9866 40.0127C68.762 39.5218 68.864 39.1658 68.864 39.1658L68.2149 39.4009C68.2149 39.4009 68.1134 39.7569 68.3371 40.2482C68.5607 40.7396 68.6249 40.9725 68.4623 41.3645L69.1114 41.1289Z" fill="#5F9600"/>
<path d="M40.3981 10.0712L41.212 8.8969C41.212 8.8969 39.5468 7.97838 38.6314 7.0625L37.8179 8.2368C38.7333 9.15267 40.3981 10.0712 40.3981 10.0712Z" fill="#5F9600"/>
<path d="M10.8538 70.6994L11.5609 70.3637C11.5609 70.3637 10.9184 69.4038 11.2915 68.4489L10.5835 68.7846C10.2108 69.7392 10.8538 70.6994 10.8538 70.6994Z" fill="#5F9600"/>
<path d="M51.457 54.5436L52.9345 52.9382C52.9345 52.9382 50.273 51.1306 50.2383 48.2744L48.7612 49.8798C48.7955 52.736 51.457 54.5436 51.457 54.5436Z" fill="#5F9600"/>
<path d="M25.2815 28.5065L26.7331 27.617C26.7331 27.617 25.3588 25.8147 24.8011 24.3759L23.3486 25.2649C23.9072 26.7042 25.2815 28.5065 25.2815 28.5065Z" fill="#5F9600"/>
<path d="M94.9809 1.65681L96.0549 -1.09347C96.0549 -1.09347 93.2401 -2.62374 90.0776 -2.44971L89.0039 0.301008C92.1655 0.126973 94.9809 1.65681 94.9809 1.65681Z" fill="#5F9600"/>
<path d="M34.5306 13.1057L36.2134 12.0211C36.2134 12.0211 35.2742 10.0623 33.4679 8.9021L31.7852 9.98674C33.5919 11.147 34.5306 13.1057 34.5306 13.1057Z" fill="#5F9600"/>
<path d="M5.51262 35.0531L7.20111 34.538C7.20111 34.538 6.29094 32.3722 6.10504 30.7831L4.41699 31.2986C4.60289 32.8873 5.51262 35.0531 5.51262 35.0531Z" fill="#5F9600"/>
<path d="M86.8364 10.5537L88.0652 8.07238C88.0652 8.07238 85.1413 9.77933 81.3147 4.39172L80.0859 6.87304C83.9125 12.2602 86.8364 10.5537 86.8364 10.5537Z" fill="#5F9600"/>
<path d="M42.266 47.4957L43.0914 47.0127C43.0914 47.0127 42.0234 47.6241 40.6501 45.6543L39.8247 46.1373C41.1981 48.107 42.266 47.4957 42.266 47.4957Z" fill="#5F9600"/>
<path d="M18.489 78.9902C18.8186 78.7595 18.8858 78.5397 18.9561 78.0317C19.0264 77.5232 19.2897 77.2898 19.2897 77.2898L18.6489 77.1483C18.6489 77.1483 18.3861 77.3817 18.3158 77.8902C18.2455 78.3982 18.1782 78.6175 17.8486 78.8487L18.489 78.9902Z" fill="#5F9600"/>
<path d="M27.2646 21.0877L28.3897 20.3814C28.3897 20.3814 26.9341 21.2766 24.9415 18.6033L23.8169 19.3095C25.8095 21.9829 27.2646 21.0877 27.2646 21.0877Z" fill="#5F9600"/>
<path d="M41.5194 22.6337L43.2764 20.8279C43.2764 20.8279 40.6475 18.7452 39.3215 16.8849L37.5649 18.6912C38.89 20.5515 41.5194 22.6337 41.5194 22.6337Z" fill="#5F9600"/>
</g>
<mask id="mask5_1847_73087" style="mask-type:luminance" maskUnits="userSpaceOnUse" x="0" y="-1" width="121" height="122">
<path d="M120 -0.295776H0.000488281V120H120V-0.295776Z" fill="white"/>
</mask>
<g mask="url(#mask5_1847_73087)">
<path d="M65.6616 72.1194L65.8638 72.9882C65.8638 72.9882 66.4558 73.4616 67.5483 73.2585L67.3475 72.3901C66.2545 72.5927 65.6616 72.1194 65.6616 72.1194Z" fill="#5F9600"/>
<path d="M41.6636 90.0163L42.1167 90.7208C42.1167 90.7208 42.7895 90.952 43.6922 90.4268L43.2391 89.7223C42.3364 90.2475 41.6636 90.0163 41.6636 90.0163Z" fill="#5F9600"/>
<path d="M15.0752 101.388L15.5283 102.092C15.5283 102.092 16.2011 102.324 17.1038 101.798L16.6507 101.094C15.748 101.619 15.0752 101.388 15.0752 101.388Z" fill="#5F9600"/>
<path d="M33.8917 108.804L33.8843 108.799C33.8843 108.799 33.8869 108.801 33.8917 108.804Z" fill="#5F9600"/>
<path d="M35.3898 108.91C34.564 109.183 33.9654 108.848 33.8916 108.804L34.5513 109.21C34.5513 109.21 35.1744 109.613 36.0569 109.321C36.939 109.029 37.1143 107.917 37.1143 107.917L36.4467 107.506C36.4467 107.506 36.2714 108.619 35.3898 108.91Z" fill="#5F9600"/>
<path d="M33.8436 112.052L33.644 113.813C33.644 113.813 36.0036 113.838 37.5422 114.302L37.7413 112.54C36.2027 112.077 33.8436 112.052 33.8436 112.052Z" fill="#5F9600"/>
<path d="M63.3686 105.586L63.355 105.574C63.355 105.574 63.3598 105.578 63.3686 105.586Z" fill="#5F9600"/>
<path d="M66.3681 106.376C64.5882 106.613 63.5009 105.704 63.3687 105.586L64.5517 106.662C64.5517 106.662 65.6632 107.719 67.5644 107.464C69.466 107.21 70.2483 105.019 70.2483 105.019L69.0516 103.93C69.0516 103.93 68.2693 106.121 66.3681 106.376Z" fill="#5F9600"/>
<path d="M71.8956 86.9004L70.5425 87.9982C70.5425 87.9982 72.6634 87.7881 73.4404 91.8744L74.7936 90.7766C74.0166 86.6907 71.8956 86.9004 71.8956 86.9004Z" fill="#5F9600"/>
<path d="M47.8857 95.4663L47.3398 96.2503C47.3398 96.2503 48.4258 95.8175 49.4555 97.8518L50.0013 97.0678C48.9716 95.0334 47.8857 95.4663 47.8857 95.4663Z" fill="#5F9600"/>
<path d="M84.0963 50.1233L83.0684 51.0181C83.0684 51.0181 84.5964 52.3233 84.4215 54.0988L85.449 53.2041C85.6239 51.4285 84.0963 50.1233 84.0963 50.1233Z" fill="#5F9600"/>
<path d="M75.9245 51.5938L73.4946 52.4318C73.4946 52.4318 74.0664 55.1619 75.9641 57.1615L78.3949 56.3239C76.4967 54.3242 75.9245 51.5938 75.9245 51.5938Z" fill="#5F9600"/>
<path d="M61.5402 114.531L61.2998 116.604C63.8018 116.705 65.307 114.819 65.307 114.819L65.5474 112.746C65.5474 112.746 64.0426 114.632 61.5402 114.531Z" fill="#5F9600"/>
<path d="M118.618 75.735L117.051 76.2553C117.051 76.2553 117.952 78.2602 118.163 79.7422L119.729 79.2218C119.519 77.7399 118.618 75.735 118.618 75.735Z" fill="#5F9600"/>
<path d="M30.7354 119.922L32.2393 120.924C32.2393 120.924 33.7713 120.8 35.1025 118.983L33.5986 117.981C32.2665 119.798 30.7354 119.922 30.7354 119.922Z" fill="#5F9600"/>
<path d="M82.9917 88.5779L82.3276 89.2885C83.2382 90.0185 84.3233 89.728 84.3233 89.728L84.9878 89.0174C84.9878 89.0174 83.9014 89.3079 82.9917 88.5779Z" fill="#5F9600"/>
<path d="M95.5396 118.265C95.6068 118.825 95.8327 119.053 96.4128 119.476C96.9934 119.898 97.1072 120.377 97.1072 120.377L97.7053 119.681C97.7053 119.681 97.5911 119.203 97.0105 118.78C96.4304 118.358 96.204 118.129 96.1377 117.569L95.5396 118.265Z" fill="#5F9600"/>
<path d="M70.7718 104.076L70.3872 105.01C71.54 105.385 72.4888 104.705 72.4888 104.705L72.8729 103.77C72.8729 103.77 71.9245 104.451 70.7718 104.076Z" fill="#5F9600"/>
<path d="M26.9339 101.439L26.5493 102.373C27.7021 102.749 28.6509 102.068 28.6509 102.068L29.035 101.133C29.035 101.133 28.0866 101.814 26.9339 101.439Z" fill="#5F9600"/>
<path d="M104.489 85.9371L103.402 86.4724C103.402 86.4724 104.806 85.7964 106.364 88.4074L107.45 87.8717C105.892 85.2611 104.489 85.9371 104.489 85.9371Z" fill="#5F9600"/>
<path d="M118.989 45.739C118.467 46.0669 118.345 46.3974 118.198 47.1695C118.05 47.9417 117.63 48.2783 117.63 48.2783L118.598 48.5455C118.598 48.5455 119.019 48.2089 119.167 47.4372C119.314 46.665 119.434 46.3341 119.958 46.0067L118.989 45.739Z" fill="#5F9600"/>
<path d="M114.071 29.5143L111.569 29.9713C111.569 29.9713 114.794 29.4136 116.439 35.5857L118.941 35.1287C117.296 28.9566 114.071 29.5143 114.071 29.5143Z" fill="#5F9600"/>
<path d="M5.73922 98.7325L3.23682 99.1896C3.23682 99.1896 6.46173 98.6319 8.10715 104.804L10.6091 104.347C8.9637 98.1748 5.73922 98.7325 5.73922 98.7325Z" fill="#5F9600"/>
<path d="M99.9231 72.9033L99.9214 72.8857C99.9214 72.8857 99.9223 72.8919 99.9231 72.9033Z" fill="#5F9600"/>
<path d="M101.558 75.3957C100.134 74.4213 99.9422 73.0726 99.9233 72.9038L100.077 74.4328C100.077 74.4328 100.192 75.9015 101.713 76.9422C103.234 77.9829 105.202 76.922 105.202 76.922L105.046 75.3754C105.046 75.3754 103.079 76.4364 101.558 75.3957Z" fill="#5F9600"/>
<path d="M93.704 59.5563L92.2393 60.2151C92.2393 60.2151 94.1317 59.3853 96.0737 62.9196L97.5381 62.2604C95.5965 58.7265 93.704 59.5563 93.704 59.5563Z" fill="#5F9600"/>
<path d="M56.8047 71.1427L56.8003 71.1344C56.8003 71.1344 56.8016 71.1375 56.8047 71.1427Z" fill="#5F9600"/>
<path d="M58.084 72.0565C57.1976 71.8491 56.8464 71.2224 56.8047 71.1428L57.1717 71.8658C57.1717 71.8658 57.5087 72.5659 58.4558 72.7874C59.4025 73.0089 60.1676 72.1114 60.1676 72.1114L59.7962 71.3801C59.7962 71.3801 59.0307 72.2776 58.084 72.0565Z" fill="#5F9600"/>
<path d="M79.6873 117.924L79.29 119.197C79.29 119.197 80.5531 118.165 82.7786 120.44L83.1764 119.168C80.9508 116.892 79.6873 117.924 79.6873 117.924Z" fill="#5F9600"/>
<path d="M104.298 36.8778L102.879 37.3643C102.879 37.3643 103.715 39.1781 103.918 40.5233L105.338 40.0368C105.135 38.692 104.298 36.8778 104.298 36.8778Z" fill="#5F9600"/>
<path d="M119.34 91.166L118.812 91.3339C118.812 91.3339 119.494 91.1243 120.02 92.4137L120.548 92.2458C120.022 90.9568 119.34 91.166 119.34 91.166Z" fill="#5F9600"/>
<path d="M58.932 64.4407L57.9199 65.5205C59.3034 66.6337 60.9567 66.1946 60.9567 66.1946L61.9684 65.1148C61.9684 65.1148 60.3151 65.5539 58.932 64.4407Z" fill="#5F9600"/>
<path d="M99.9096 46.796L99.7642 47.5937C99.7642 47.5937 100.087 48.2024 101.072 48.4278L101.218 47.6306C100.232 47.4051 99.9096 46.796 99.9096 46.796Z" fill="#5F9600"/>
<path d="M114.517 41.5442L113.388 41.5982C113.388 41.5982 114.577 42.3032 113.413 44.7388L114.543 44.6852C115.707 42.2496 114.517 41.5442 114.517 41.5442Z" fill="#5F9600"/>
<path d="M95.8396 104.958L95.8374 104.954C95.8374 104.954 95.8383 104.955 95.8396 104.958Z" fill="#5F9600"/>
<path d="M96.394 105.358C96.009 105.266 95.8569 104.993 95.8394 104.958L95.9971 105.273C95.9971 105.273 96.1422 105.578 96.5544 105.676C96.9666 105.775 97.3002 105.385 97.3002 105.385L97.1407 105.067C97.1407 105.067 96.8058 105.457 96.394 105.358Z" fill="#5F9600"/>
<path d="M37.3103 98.0918L37.207 98.9747C37.207 98.9747 38.5171 98.9356 39.2115 99.8699L39.3152 98.987C38.6213 98.0522 37.3103 98.0918 37.3103 98.0918Z" fill="#5F9600"/>
<path d="M119.434 56.2567L119.436 56.2413C119.436 56.2413 119.435 56.2466 119.434 56.2567Z" fill="#5F9600"/>
<path d="M120.317 58.7059C119.304 57.5888 119.415 56.4035 119.433 56.2567L119.253 57.5875C119.253 57.5875 119.053 58.8589 120.135 60.0521C121.217 61.2457 123.105 60.7421 123.105 60.7421L123.287 59.3964C123.287 59.3964 121.399 59.8991 120.317 58.7059Z" fill="#5F9600"/>
<path d="M92.1956 65.3882L91.3447 65.6158C91.3447 65.6158 91.4735 66.5629 92.0738 67.2925L92.9251 67.0648C92.3248 66.3357 92.1956 65.3882 92.1956 65.3882Z" fill="#5F9600"/>
<path d="M52.1515 68.1231C51.6641 69.3577 51.8768 70.0832 52.6059 71.6082C53.3354 73.1328 53.0362 74.2513 53.0362 74.2513L55.0534 73.4787C55.0534 73.4787 55.3531 72.3602 54.6231 70.8352C53.8936 69.3106 53.6804 68.5846 54.1683 67.3501L52.1515 68.1231Z" fill="#5F9600"/>
<path d="M91.5714 47.0394L89.479 48.1293C90.9719 50.5337 93.6901 50.7469 93.6901 50.7469L95.7825 49.6574C95.7825 49.6574 93.0647 49.4443 91.5714 47.0394Z" fill="#5F9600"/>
<path d="M85.8607 111.392L85.2397 112.619C85.2397 112.619 86.0537 111.048 89.2491 112.357L89.8706 111.13C86.6747 109.821 85.8607 111.392 85.8607 111.392Z" fill="#5F9600"/>
<path d="M23.7817 91.359L21.6396 93.0145C21.6396 93.0145 24.121 95.6281 25.2504 97.8071L27.3925 96.152C26.2634 93.973 23.7817 91.359 23.7817 91.359Z" fill="#5F9600"/>
<path d="M88.295 73.3156L86.9502 74.7267C86.9502 74.7267 89.2997 76.3831 89.286 78.9343L90.6304 77.5236C90.644 74.9715 88.295 73.3156 88.295 73.3156Z" fill="#5F9600"/>
<path d="M112.188 111.334L111.824 111.753C111.824 111.753 112.513 112.194 112.542 112.92L112.907 112.502C112.878 111.775 112.188 111.334 112.188 111.334Z" fill="#5F9600"/>
<path d="M62.4158 83.6904L61.4907 84.4235C61.4907 84.4235 62.1543 85.5191 63.2807 86.0966L64.2058 85.3635C63.079 84.7861 62.4158 83.6904 62.4158 83.6904Z" fill="#5F9600"/>
<path d="M23.8514 79.6252L22.9263 80.3583C22.9263 80.3583 23.5899 81.4539 24.7163 82.0314L25.6414 81.2984C24.5146 80.7209 23.8514 79.6252 23.8514 79.6252Z" fill="#5F9600"/>
<path d="M56.2996 84.4463L55.9194 85.0576C56.685 85.4567 57.4313 85.0906 57.4313 85.0906L57.811 84.4793C57.811 84.4793 57.0647 84.8453 56.2996 84.4463Z" fill="#5F9600"/>
<path d="M36.87 104.171L36.8647 104.168C36.8647 104.168 36.8669 104.169 36.87 104.171Z" fill="#5F9600"/>
<path d="M37.9341 104.319C37.332 104.474 36.9202 104.206 36.8696 104.172L37.321 104.492C37.321 104.492 37.7473 104.81 38.3907 104.644C39.0336 104.478 39.2121 103.692 39.2121 103.692L38.755 103.367C38.755 103.367 38.5775 104.152 37.9341 104.319Z" fill="#5F9600"/>
<path d="M66.2052 73.4273L64.2139 74.7971C64.2139 74.7971 67.1694 74.7391 67.7961 80.4748L69.7878 79.1049C69.1607 73.3697 66.2052 73.4273 66.2052 73.4273Z" fill="#5F9600"/>
<path d="M78.9271 80.1974L78.0151 80.741C78.0151 80.741 79.312 80.7995 79.4241 83.3313L80.3356 82.7877C80.224 80.2558 78.9271 80.1974 78.9271 80.1974Z" fill="#5F9600"/>
<path d="M80.4093 96.0614L80.4058 96.0557C80.4058 96.0557 80.4075 96.0574 80.4093 96.0614Z" fill="#5F9600"/>
<path d="M81.3374 96.6472C80.7111 96.5378 80.4417 96.115 80.4092 96.0614L80.694 96.5505C80.694 96.5505 80.9568 97.0256 81.6257 97.1425C82.2946 97.2594 82.7925 96.6028 82.7925 96.6028L82.5042 96.108C82.5042 96.108 82.0076 96.7641 81.3374 96.6472Z" fill="#5F9600"/>
<path d="M109.037 45.3787L108.484 47.4719C108.484 47.4719 109.217 49.1595 111.794 49.9642L112.347 47.8705C109.77 47.0672 109.037 45.3787 109.037 45.3787Z" fill="#5F9600"/>
<path d="M78.6468 113.953L78.4912 114.606C78.4912 114.606 79.3772 114.725 79.9349 114.97L80.0905 114.316C79.5328 114.071 78.6468 113.953 78.6468 113.953Z" fill="#5F9600"/>
<path d="M95.1349 40.0653L94.6699 42.7703C94.6699 42.7703 95.7849 44.8201 99.1285 45.5478L99.593 42.8428C96.2494 42.115 95.1349 40.0653 95.1349 40.0653Z" fill="#5F9600"/>
<path d="M114.238 98.7577L114.237 98.752C114.237 98.752 114.237 98.7542 114.238 98.7577Z" fill="#5F9600"/>
<path d="M114.757 99.5491C114.304 99.2397 114.243 98.8112 114.237 98.7576L114.286 99.2428C114.286 99.2428 114.322 99.7095 114.805 100.04C115.289 100.37 115.914 100.033 115.914 100.033L115.864 99.5416C115.865 99.5425 115.24 99.8796 114.757 99.5491Z" fill="#5F9600"/>
<path d="M57.1572 102.792L56.7915 103.644C56.7915 103.644 57.2723 102.553 59.4767 103.297L59.8424 102.445C57.6371 101.701 57.1572 102.792 57.1572 102.792Z" fill="#5F9600"/>
<path d="M46.3208 80.1398L45.7666 80.7033C45.7666 80.7033 46.711 80.5011 47.2687 82.303L47.8234 81.7396C47.2666 79.9377 46.3208 80.1398 46.3208 80.1398Z" fill="#5F9600"/>
<path d="M78.4967 63.7864L78.0576 64.2641C78.0576 64.2641 78.8496 64.8016 78.8601 65.6507L79.2992 65.1734C79.2886 64.3239 78.4967 63.7864 78.4967 63.7864Z" fill="#5F9600"/>
<path d="M44.5503 114.844L45.2552 115.402C45.2552 115.402 46.0195 115.402 46.7521 114.555L46.0472 113.997C45.3146 114.844 44.5503 114.844 44.5503 114.844Z" fill="#5F9600"/>
<path d="M114.824 56.7748L113.718 56.8082C113.718 56.8082 113.604 58.0022 114.128 59.0662L115.233 59.0324C114.709 57.9693 114.824 56.7748 114.824 56.7748Z" fill="#5F9600"/>
<path d="M63.8154 92.2796L63.8066 92.2682C63.8066 92.2682 63.8102 92.2721 63.8154 92.2796Z" fill="#5F9600"/>
<path d="M65.9364 93.338C64.5674 93.2382 63.8959 92.3883 63.8154 92.2797L64.5331 93.269C64.5331 93.269 65.2002 94.2328 66.6628 94.3387C68.125 94.445 69.0527 92.9279 69.0527 92.9279L68.3267 91.9272C68.3267 91.9272 67.399 93.4443 65.9364 93.338Z" fill="#5F9600"/>
<path d="M78.4567 103.513L77.8516 104.144C77.8516 104.144 78.4488 104.881 79.3344 105.192L79.9391 104.56C79.0544 104.249 78.4567 103.513 78.4567 103.513Z" fill="#5F9600"/>
<path d="M93.2575 94.5961L92.2124 95.4303C92.2124 95.4303 93.5673 94.3698 95.8649 96.8195L96.91 95.9854C94.6124 93.5357 93.2575 94.5961 93.2575 94.5961Z" fill="#5F9600"/>
<path d="M120.379 38.496L119.251 38.7425C119.251 38.7425 119.73 40.2038 119.766 41.2502L120.895 41.0041C120.858 39.9572 120.379 38.496 120.379 38.496Z" fill="#5F9600"/>
<path d="M109.621 41.7609L108.773 41.7894C108.773 41.7894 108.689 42.7066 109.093 43.5223L109.942 43.4937C109.537 42.6781 109.621 41.7609 109.621 41.7609Z" fill="#5F9600"/>
<path d="M106.908 62.7324L105.955 63.3538C105.955 63.3538 107.067 64.6094 106.718 66.0571L107.671 65.4357C108.021 63.988 106.908 62.7324 106.908 62.7324Z" fill="#5F9600"/>
<path d="M86.4452 61.7462L85.7935 62.1787C86.3701 62.9192 87.2732 62.8941 87.2732 62.8941L87.9245 62.4617C87.9245 62.4617 87.0214 62.4867 86.4452 61.7462Z" fill="#5F9600"/>
<path d="M51.4166 77.2094L49.7153 78.6196C49.7153 78.6196 51.003 80.6421 53.1358 81.6758L54.8366 80.2655C52.7038 79.2323 51.4166 77.2094 51.4166 77.2094Z" fill="#5F9600"/>
<path d="M110.917 35.489L109.818 35.8358C110.333 37.1191 111.622 37.4517 111.622 37.4517L112.721 37.1045C112.721 37.1045 111.431 36.7723 110.917 35.489Z" fill="#5F9600"/>
<path d="M102.665 53.2009L101.64 53.6198C101.64 53.6198 102.333 54.9206 102.54 55.9024L103.565 55.4836C103.358 54.5014 102.665 53.2009 102.665 53.2009Z" fill="#5F9600"/>
</g>
</g>
</g>
</svg>
